<svg xmlns="http://www.w3.org/2000/svg" width="20" height="16" viewBox="0 0 20 16">
	<path d="M20 1.9c-1 .3-1.7.5-2.5.6.9-.5 1.4-1.3 1.7-2.2-.8.5-1.7.8-2.6 1-.8-.9-1.8-1.3-3-1.3-1.1 0-2.1.4-2.9 1.2-.7.8-1.1 1.7-1.1 2.8 0 .3 0 .6.1.9-1.7 0-3.2-.4-4.6-1.2-1.5-.7-2.7-1.7-3.7-3-.4.7-.6 1.3-.6 2.1 0 .7.2 1.3.5 1.9.3.6.9 1.1 1.4 1.4-.6 0-1.7-.2-1.7-.5v.1c0 1 .2 1.8.8 2.6.6.7 1.4 1.2 2.3 1.3-.4.1-.7.2-1.1.2-.3 0-.5 0-.8-.1.3.8.7 1.5 1.4 2s1.5.8 2.3.8c-1.5 1.2-3.1 1.7-5 1.7h-1c2 1.2 4.1 1.8 6.3 1.8 1.4 0 2.8-.2 4-.7 1.2-.4 2.3-1.1 3.2-1.8s1.7-1.6 2.3-2.6c.7-1 1.1-2 1.4-3.1.3-1.1.5-2.2.5-3.2 0-.2.1-.4.1-.5.9-.7 1.3-1.4 2.3-2.2z"/>
	<desc>Keep up to date with The Quietus by following @theQuietus</desc>
</svg>
