<?xml version="1.0" encoding="utf-8"?>
<!-- Generator: Adobe Illustrator 17.1.0, SVG Export Plug-In . SVG Version: 6.00 Build 0)  -->
<!DOCTYPE svg PUBLIC "-//W3C//DTD SVG 1.1//EN" "http://www.w3.org/Graphics/SVG/1.1/DTD/svg11.dtd">
<svg version="1.1" id="Layer_1" xmlns="http://www.w3.org/2000/svg" xmlns:xlink="http://www.w3.org/1999/xlink" x="0px" y="0px"
	 width="1205px" height="40px" viewBox="-377.7 -217 1205 40" enable-background="new -377.7 -217 1205 40" xml:space="preserve">
<g>
	<path d="M344.9-185.5c8.2,0,14.6-5.5,14.9-12.5h5.6c9.3,0,27,12.2,27,12.2c18.3-9.6,96.2-13.2,97.8-13.2h334.6
		c1.4,0,2.5-1.1,2.5-2.5c0-1.4-1.1-2.5-2.5-2.5h-334l0,0c-66.1,0-101.8-8.1-101.8-8.1c-7,9-22.5,11.1-29.8,11.4
		c-1.4-5.9-7.3-10.1-14.6-10.1c-8.2,0-14.9,5.6-14.9,12.6C329.9-191.1,336.4-185.5,344.9-185.5z M392.9-208.5c0,0,33.5,7.6,61.6,8.2
		c0,0-43.3,2.3-59.9,10.4c0,0-11.8-7.6-16.9-9.3C377.7-199.5,389.6-204.8,392.9-208.5z M345.7-206.8c4.5,0,8.2,3.7,8.2,8.4
		c0,4.5-3.7,8.4-8.2,8.4c-4.5,0-8.2-3.7-8.2-8.4C337.5-203.1,341.2-206.8,345.7-206.8z"/>
	<path d="M-374.9-199h334.6c1.7,0,79.6,3.6,97.8,13.2c0,0,17.7-12.2,27-12.2h5.6c0.3,8,6.7,12.5,14.9,12.5s14.9-5.6,14.9-12.6
		s-6.7-12.6-14.9-12.6c-7.3,0-13.2,4.5-14.6,10.1c-7.3-0.3-22.8-2.2-29.8-11.2c0,0-35.7,6.8-101.8,8.8l0,0h-334
		c-1.4,0-2.5,0.7-2.5,2.1C-377.4-199.7-376.3-199-374.9-199z M104.2-206.8c4.5,0,8.2,3.7,8.2,8.4c0,4.5-3.7,8.4-8.2,8.4
		s-8.2-3.7-8.2-8.4C96-203.1,99.7-206.8,104.2-206.8z M57-208.5c3.4,3.7,15.2,9.3,15.2,9.3c-4.8,1.7-16.9,9.3-16.9,9.3
		c-16.9-8.2-59.9-10.4-59.9-10.4C23.2-200.9,57-208.5,57-208.5z"/>
	<path d="M282.4-195.5c-11-7.9-32.3-2.5-49.8,5.1s-33.5,12.9-33.5,12.9c9.8,3.4,32.1-9.3,55.1-16.3
		C274.6-199.7,281.6-196.1,282.4-195.5z"/>
	<path d="M165.2-199.5c2.8,2.8,12.1,5.9,30.9-0.3c14.6-4.8,35.7-13.5,35.7-13.5c-15.7-1.7-20,5.3-40.5,11.8
		C172.5-195.5,165.2-199.5,165.2-199.5z"/>
	<path d="M155.1-177.5c21.4,1.7,39.4-6.2,57.1-13.5l7.6-3.1c18.3-7.9,43.3-18.3,66.1-17.7c20.8,0.6,32.9,6.2,32.9,14.9
		c0,7.9-7.3,12.4-22.2,13.5c-14.6,1.1-27.6-7.6-27.6-7.6c-1.1-0.8-2.5-0.6-3.4,0.6c-0.8,1.1-0.6,2.5,0.6,3.4
		c0.6,0.3,14.3,9.8,30.6,8.4c21.9-1.7,26.7-11,26.7-18.3c0-7-4.8-18.8-37.7-20c-23.9-0.8-48.4,8.4-66.9,16.6l-7.6,3.1
		c-16.9,7.3-35.7,16.3-55.9,14.9c-23.9-1.7-27-9.3-27-15.8c0-2,0.8-3.4,2.2-4.8c3.9-3.9,12.9-5.9,23.3-5.6
		c12.7,0.3,22.2,3.9,22.2,4.2c1.1,0.6,2.5,0,3.4-1.1c0.6-1.1,0-2.5-1.1-3.4c-0.6-0.3-10.4-4.2-24.2-4.5c-11.8-0.3-21.9,2.3-26.7,7
		c-2.5,2.3-3.7,5.1-3.7,8.4C123.6-185.7,133.4-179.2,155.1-177.5z"/>
</g>
</svg>
