<?xml version="1.0" encoding="utf-8"?>
<!-- Generator: Adobe Illustrator 18.0.0, SVG Export Plug-In . SVG Version: 6.00 Build 0)  -->
<!DOCTYPE svg PUBLIC "-//W3C//DTD SVG 1.1//EN" "http://www.w3.org/Graphics/SVG/1.1/DTD/svg11.dtd">
<svg version="1.1" id="Layer_1" xmlns="http://www.w3.org/2000/svg" xmlns:xlink="http://www.w3.org/1999/xlink" x="0px" y="0px"
	 width="1205px" height="40px" viewBox="-980.2 -237 1205 40" enable-background="new -980.2 -237 1205 40" xml:space="preserve">
<g>
	<path d="M-257.6-205.6c8.2,0,14.6-5.6,14.9-12.6h5.6c9.3,0,27,12.3,27,12.3c18.3-9.6,96.2-13.2,97.8-13.2c0,0,337.1-1.1,337.1-2.5
		s-336.5-2.5-336.5-2.5l0,0c-66.1,0-101.8-8.1-101.8-8.1c-7,9-22.5,11.1-29.8,11.4c-1.4-5.9-7.3-10.1-14.6-10.1
		c-8.2,0-14.9,5.6-14.9,12.6C-272.6-211.1-266.1-205.6-257.6-205.6z M-209.6-228.5c0,0,33.5,7.6,61.6,8.2c0,0-43.3,2.3-59.9,10.4
		c0,0-11.8-7.6-16.9-9.3C-224.8-219.5-212.9-224.8-209.6-228.5z M-256.8-226.8c4.5,0,8.2,3.7,8.2,8.4c0,4.5-3.7,8.4-8.2,8.4
		s-8.2-3.7-8.2-8.4S-261.3-226.8-256.8-226.8z"/>
	<path d="M-642.8-219c1.7,0,79.6,3.5,97.8,13.1c0,0,17.7-12.3,27-12.3h5.6c0.3,8,6.7,12.6,14.9,12.6c8.2,0,14.9-5.6,14.9-12.6
		s-6.7-12.6-14.9-12.6c-7.3,0-13.2,4.5-14.6,10.1c-7.3-0.3-22.8-2.2-29.8-11.2c0,0-35.7,6.8-101.8,8.8l0,0c0,0-336.5,0.7-336.5,2.1
		C-979.9-219.7-642.8-219-642.8-219z M-498.3-226.8c4.5,0,8.2,3.7,8.2,8.4c0,4.5-3.7,8.4-8.2,8.4s-8.2-3.7-8.2-8.4
		S-502.8-226.8-498.3-226.8z M-545.5-228.5c3.4,3.7,15.2,9.3,15.2,9.3c-4.8,1.7-16.9,9.3-16.9,9.3c-16.9-8.2-59.9-10.4-59.9-10.4
		C-579.3-220.9-545.5-228.5-545.5-228.5z"/>
	<path d="M-320.1-215.5c-11-7.9-32.3-2.5-49.8,5.1s-33.5,12.9-33.5,12.9c9.8,3.4,32.1-9.3,55.1-16.3
		C-327.9-219.7-320.9-216.1-320.1-215.5z"/>
	<path d="M-437.3-219.5c2.8,2.8,12.1,5.9,30.9-0.3c14.6-4.8,35.7-13.5,35.7-13.5c-15.7-1.7-20,5.3-40.5,11.8
		C-430-215.5-437.3-219.5-437.3-219.5z"/>
	<path d="M-447.4-197.5c21.4,1.7,39.4-6.2,57.1-13.5l7.6-3.1c18.3-7.9,43.3-18.3,66.1-17.7c20.8,0.6,32.9,6.2,32.9,14.9
		c0,7.9-7.3,12.4-22.2,13.5c-14.6,1.1-27.6-7.6-27.6-7.6c-1.1-0.8-2.5-0.6-3.4,0.6c-0.8,1.1-0.6,2.5,0.6,3.4
		c0.6,0.3,14.3,9.8,30.6,8.4c21.9-1.7,26.7-11,26.7-18.3c0-7-4.8-18.8-37.7-20c-23.9-0.8-48.4,8.4-66.9,16.6l-7.6,3.1
		c-16.9,7.3-35.7,16.3-55.9,14.9c-23.9-1.7-27-9.3-27-15.8c0-2,0.8-3.4,2.2-4.8c3.9-3.9,12.9-5.9,23.3-5.6
		c12.7,0.3,22.2,3.9,22.2,4.2c1.1,0.6,2.5,0,3.4-1.1c0.6-1.1,0-2.5-1.1-3.4c-0.6-0.3-10.4-4.2-24.2-4.5c-11.8-0.3-21.9,2.3-26.7,7
		c-2.5,2.3-3.7,5.1-3.7,8.4C-478.9-205.7-469.1-199.2-447.4-197.5z"/>
</g>
</svg>
