<?xml version="1.0" encoding="utf-8"?>
<!-- Generator: Adobe Illustrator 17.1.0, SVG Export Plug-In . SVG Version: 6.00 Build 0)  -->
<!DOCTYPE svg PUBLIC "-//W3C//DTD SVG 1.1//EN" "http://www.w3.org/Graphics/SVG/1.1/DTD/svg11.dtd">
<svg version="1.1" id="Layer_1" xmlns="http://www.w3.org/2000/svg" xmlns:xlink="http://www.w3.org/1999/xlink" x="0px" y="0px"
	 width="32px" height="30px" viewBox="0 0 32 30" enable-background="new 0 0 32 30" xml:space="preserve">
<g>
	<path d="M0,11.5h12.2L16,0l3.8,11.5H32l-9.9,7.1L25.9,30L16,22.9L6.1,30l3.8-11.5L0,11.5z M3.4,12.6l7.8,5.6l4.8-1.5L3.4,12.6z
		 M8.2,27.1l7.8-5.6v-5L8.2,27.1z M16,16.6v-13l-3,9L16,16.6z M16,16.6l12.6-4H19L16,16.6z M23.8,27.1l-3-9L16,16.6L23.8,27.1z"/>
</g>
</svg>
