<?xml version="1.0" encoding="utf-8"?>
<!-- Generator: Adobe Illustrator 17.1.0, SVG Export Plug-In . SVG Version: 6.00 Build 0)  -->
<!DOCTYPE svg PUBLIC "-//W3C//DTD SVG 1.1//EN" "http://www.w3.org/Graphics/SVG/1.1/DTD/svg11.dtd">
<svg version="1.1" id="Layer_1" xmlns="http://www.w3.org/2000/svg" xmlns:xlink="http://www.w3.org/1999/xlink" x="0px" y="0px"
	 width="42px" height="15px" viewBox="0 0 42 15" enable-background="new 0 0 42 15" xml:space="preserve">
<g>
	<path d="M41.9,7.7C41.4,5,37.5-0.1,26.3,0C15,0.1,9.7,4,9.1,7.8c-0.6,3.8,3,4.3,3,4.3c2.6-3.1,13.5-9,16-9.5c2.5-0.5,2.7,0,2.7,0
		c-1.4,0.2-4.3,1.7-7.1,3.7c-2.7,2-8.4,6.3-13.3,7c-4.8,0.7-6.8-0.1-8.3-2C0.6,9.5,2.4,7.7,3.6,8c1.2,0.4-0.7,1.6,1.1,2
		c1.4,0.2,1.5-1.4,1.5-1.4c0.2-1.5-0.7-2.2-2.1-2.5c-1.4-0.2-3.5,0.2-4,2.3c-0.5,2.1,0.1,5.3,5.9,6.3c5.8,1,10.9-2.3,15.4-4.7
		C25.9,7.8,31.7,3,35.7,3.6c4,0.6,4.8,3.2,4.8,4.9c0,1.7-0.7,3.7-3.2,3.6c-2.5-0.1-2.1-2-1.7-2.6c0.4-0.6,0.9-1,0-1.4
		c-0.9-0.4-2.4,0.1-3.1,1.4c-0.7,1.2-0.4,5.3,4.5,5.4C40.9,15.1,42.5,11,41.9,7.7z"/>
</g>
</svg>
