<?xml version="1.0" encoding="utf-8"?>
<!-- Generator: Adobe Illustrator 17.1.0, SVG Export Plug-In . SVG Version: 6.00 Build 0)  -->
<!DOCTYPE svg PUBLIC "-//W3C//DTD SVG 1.1//EN" "http://www.w3.org/Graphics/SVG/1.1/DTD/svg11.dtd">
<svg version="1.1" id="Layer_1" xmlns="http://www.w3.org/2000/svg" xmlns:xlink="http://www.w3.org/1999/xlink" x="0px" y="0px"
	 width="428.4px" height="14.1px" viewBox="-195.6 10.5 428.4 14.1" enable-background="new -195.6 10.5 428.4 14.1"
	 xml:space="preserve">
<g>
	<path d="M61.3,21.7c2.9,0,5.2-2,5.3-4.4h2c3.3,0,9.6,4.4,9.6,4.4c6.5-3.4,34.2-4.6,34.8-4.6h119c0.5,0,0.9-0.4,0.9-0.9
		c0-0.5-0.4-0.9-0.9-0.9H113.2v0C89.7,15,77,12.3,77,12.3c-2.5,3.2-8,3.9-10.6,4c-0.5-2.1-2.6-3.6-5.2-3.6c-2.9,0-5.3,2-5.3,4.5
		C56,19.7,58.3,21.7,61.3,21.7z M78.4,13.5c0,0,11.9,2.7,21.9,2.9c0,0-15.4,0.8-21.3,3.7c0,0-4.2-2.7-6-3.3
		C73,16.7,77.2,14.8,78.4,13.5z M61.6,14.1c1.6,0,2.9,1.3,2.9,3c0,1.6-1.3,3-2.9,3c-1.6,0-2.9-1.3-2.9-3
		C58.7,15.4,60,14.1,61.6,14.1z"/>
	<path d="M-194.7,17.1h119c0.6,0,28.3,1.2,34.8,4.6c0,0,6.3-4.4,9.6-4.4h2c0.1,2.5,2.4,4.4,5.3,4.4c2.9,0,5.3-2,5.3-4.5
		c0-2.5-2.4-4.5-5.3-4.5c-2.6,0-4.7,1.6-5.2,3.6c-2.6-0.1-8.1-0.8-10.6-4c0,0-12.7,2.7-36.2,3.1v0h-118.8c-0.5,0-0.9,0.4-0.9,0.9
		C-195.6,16.7-195.2,17.1-194.7,17.1z M-24.3,14.1c1.6,0,2.9,1.3,2.9,3c0,1.6-1.3,3-2.9,3c-1.6,0-2.9-1.3-2.9-3
		C-27.2,15.4-25.9,14.1-24.3,14.1z M-41.1,13.5c1.2,1.3,5.4,3.3,5.4,3.3c-1.7,0.6-6,3.3-6,3.3c-6-2.9-21.3-3.7-21.3-3.7
		C-53.1,16.2-41.1,13.5-41.1,13.5z"/>
	<path d="M39.1,18.1c-3.9-2.8-11.5-0.9-17.7,1.8c-6.2,2.7-11.9,4.6-11.9,4.6c3.5,1.2,11.4-3.3,19.6-5.8
		C36.3,16.6,38.8,17.9,39.1,18.1z"/>
	<path d="M-2.6,16.7c1,1,4.3,2.1,11-0.1c5.2-1.7,12.7-4.8,12.7-4.8C15.5,11.2,14,13.7,6.7,16C0,18.1-2.6,16.7-2.6,16.7z"/>
	<path d="M-6.2,24.5c7.6,0.6,14-2.2,20.3-4.8l2.7-1.1c6.5-2.8,15.4-6.5,23.5-6.3c7.4,0.2,11.7,2.2,11.7,5.3c0,2.8-2.6,4.4-7.9,4.8
		c-5.2,0.4-9.8-2.7-9.8-2.7c-0.4-0.3-0.9-0.2-1.2,0.2c-0.3,0.4-0.2,0.9,0.2,1.2c0.2,0.1,5.1,3.5,10.9,3c7.8-0.6,9.5-3.9,9.5-6.5
		c0-2.5-1.7-6.7-13.4-7.1c-8.5-0.3-17.2,3-23.8,5.9l-2.7,1.1c-6,2.6-12.7,5.8-19.9,5.3c-8.5-0.6-9.6-3.3-9.6-5.6
		c0-0.7,0.3-1.2,0.8-1.7c1.4-1.4,4.6-2.1,8.3-2c4.5,0.1,7.9,1.4,7.9,1.5c0.4,0.2,0.9,0,1.2-0.4c0.2-0.4,0-0.9-0.4-1.2
		c-0.2-0.1-3.7-1.5-8.6-1.6c-4.2-0.1-7.8,0.8-9.5,2.5c-0.9,0.8-1.3,1.8-1.3,3C-17.4,21.6-13.9,23.9-6.2,24.5z"/>
</g>
</svg>
