<svg xmlns="http://www.w3.org/2000/svg" width="428.4" height="14.1" viewBox="-195.6 10.5 428.4 14.1" enable-background="new -195.6 10.5 428.4 14.1"><path d="M61.3 21.7c2.9 0 5.2-2 5.3-4.4h2c3.3 0 9.6 4.4 9.6 4.4 6.5-3.4 34.2-4.6 34.8-4.6h119c.5 0 .9-.4.9-.9s-.4-.9-.9-.9h-118.8c-23.5-.3-36.2-3-36.2-3-2.5 3.2-8 3.9-10.6 4-.5-2.1-2.6-3.6-5.2-3.6-2.9 0-5.3 2-5.3 4.5.1 2.5 2.4 4.5 5.4 4.5zm17.1-8.2s11.9 2.7 21.9 2.9c0 0-15.4.8-21.3 3.7 0 0-4.2-2.7-6-3.3 0-.1 4.2-2 5.4-3.3zm-16.8.6c1.6 0 2.9 1.3 2.9 3 0 1.6-1.3 3-2.9 3-1.6 0-2.9-1.3-2.9-3s1.3-3 2.9-3zM-194.7 17.1h119c.6 0 28.3 1.2 34.8 4.6 0 0 6.3-4.4 9.6-4.4h2c.1 2.5 2.4 4.4 5.3 4.4s5.3-2 5.3-4.5-2.4-4.5-5.3-4.5c-2.6 0-4.7 1.6-5.2 3.6-2.6-.1-8.1-.8-10.6-4 0 0-12.7 2.7-36.2 3.1h-118.8c-.5 0-.9.4-.9.9.1.4.5.8 1 .8zm170.4-3c1.6 0 2.9 1.3 2.9 3 0 1.6-1.3 3-2.9 3-1.6 0-2.9-1.3-2.9-3s1.3-3 2.9-3zm-16.8-.6c1.2 1.3 5.4 3.3 5.4 3.3-1.7.6-6 3.3-6 3.3-6-2.9-21.3-3.7-21.3-3.7 9.9-.2 21.9-2.9 21.9-2.9zM39.1 18.1c-3.9-2.8-11.5-.9-17.7 1.8-6.2 2.7-11.9 4.6-11.9 4.6 3.5 1.2 11.4-3.3 19.6-5.8 7.2-2.1 9.7-.8 10-.6zM-2.6 16.7c1 1 4.3 2.1 11-.1 5.2-1.7 12.7-4.8 12.7-4.8-5.6-.6-7.1 1.9-14.4 4.2-6.7 2.1-9.3.7-9.3.7zM-6.2 24.5c7.6.6 14-2.2 20.3-4.8l2.7-1.1c6.5-2.8 15.4-6.5 23.5-6.3 7.4.2 11.7 2.2 11.7 5.3 0 2.8-2.6 4.4-7.9 4.8-5.2.4-9.8-2.7-9.8-2.7-.4-.3-.9-.2-1.2.2-.3.4-.2.9.2 1.2.2.1 5.1 3.5 10.9 3 7.8-.6 9.5-3.9 9.5-6.5 0-2.5-1.7-6.7-13.4-7.1-8.5-.3-17.2 3-23.8 5.9l-2.7 1.1c-6 2.6-12.7 5.8-19.9 5.3-8.5-.6-9.6-3.3-9.6-5.6 0-.7.3-1.2.8-1.7 1.4-1.4 4.6-2.1 8.3-2 4.5.1 7.9 1.4 7.9 1.5.4.2.9 0 1.2-.4.2-.4 0-.9-.4-1.2-.2-.1-3.7-1.5-8.6-1.6-4.2-.1-7.8.8-9.5 2.5-.9.8-1.3 1.8-1.3 3-.1 4.3 3.4 6.6 11.1 7.2z"/></svg>