<?xml version="1.0" encoding="utf-8"?>
<!-- Generator: Adobe Illustrator 17.1.0, SVG Export Plug-In . SVG Version: 6.00 Build 0)  -->
<!DOCTYPE svg PUBLIC "-//W3C//DTD SVG 1.1//EN" "http://www.w3.org/Graphics/SVG/1.1/DTD/svg11.dtd">
<svg version="1.1" id="The_Quietus" xmlns="http://www.w3.org/2000/svg" xmlns:xlink="http://www.w3.org/1999/xlink" x="0px"
	 y="0px" width="800px" height="224px" viewBox="0 0 800 224" enable-background="new 0 0 800 224" xml:space="preserve">
<g>
	<g>
		<path d="M256.8,198.3c-1.1,2.7-5.7,7.3-13.8,13.8c-11.4,6.9-24.7,10.5-40.1,10.5h-3.3c-13.5-3.2-26.7-7.7-39.4-13.3
			c-12.9-5.7-25.6-11.4-38.2-17.1c-7.9-3.3-24.3-8.2-49.2-14.5c-15.1-3.8-28.7-10.4-40.8-19.7C18.1,147.4,9,135.2,4.5,121.6
			c-1.3-3.8-2.8-9.5-4.5-17.1V78.8c2-11.1,7.6-22,16.9-32.6c8.6-10,18.4-17.7,29.5-23.4c5.8-2.8,14-5.4,24.2-7.7h4.3
			c15.2,0,29.4,4,42.6,12.1c13.2,8.1,22.8,19,29,32.8c1.4,2.2,2.6,5.8,3.7,11c1,5,2.2,8.8,3.4,11c0.3,1.1,0.5,2.8,0.5,5.2
			c0,1.9-0.3,4.8-0.8,8.7c-0.6,3.9-0.8,6.7-0.8,8.5v0.7c-3.8,18.2-10.3,32.1-19.2,41.6c-0.6,1.9-2,3.8-4,5.7c-3.2,2.8-4.9,4.5-5.2,5
			c-2.4,1.4-5.8,3.9-10.5,7.7c9.4,3.9,26.6,11.4,51.6,22.4c5.5,2.7,11.1,5.3,16.6,7.9c4.7,2.4,10.5,4.2,17.1,5.4
			c8.4,3.3,17.7,5,27.8,5c6.5,0,15.2-3.2,26.2-9.6h0.7C253.9,196.2,255,196.9,256.8,198.3z M117.8,53C114,44.7,108,37.1,100,29.9
			c-6.5-5.8-14.8-8.8-24.9-8.8c-5.2,0-10.3,0.9-15,2.8C42.4,35.9,32,50,29.2,66.1c-0.8,2.4-1.3,6.9-1.7,13.8
			c-0.6,5.2-0.9,12-0.9,20.2c0,5.7,0.1,9.9,0.2,12.6c1.7,10.2,5.7,19.9,12.1,29.3c6.3,9.4,14,16.9,22.8,22.6c1.6,0.2,3.7,1,6.4,2.6
			c1.4,0,3.9,0.2,7.6,0.7c3.6,0.5,6.4,0.7,8.4,0.7c5.2,0,9.5-1.3,12.6-4c9.5-3,16.9-11,22.1-24.1c1.4-2.2,2.7-5.3,3.8-9.3
			c0.9-3.1,1.9-6.4,2.8-9.8c0.8-4.4,1.2-10.3,1.2-17.6C126.6,86.1,123.6,69.2,117.8,53z"/>
		<path d="M291.5,76.4c-5.6,1.8-9.3,4.4-10.9,7.8c-1.8,3.8-2.9,9-3.4,15.3c-0.2,5.3-0.4,10.7-0.7,16c0.5,0.2,0.7,0.8,0.7,1.8
			c0,0.2,0,0.5,0,0.9c0,0.3,0,0.5,0,0.6v0.3c0,13.7-1.1,24.2-3.4,31.4c-1.5,4.7-3.8,9.1-6.9,12.9c-3.5,4.4-7.4,7.5-11.9,9
			c-4.2,1.9-9.5,2.9-15.7,2.9c-3.6,0-7.9-0.6-13-1.8c-5.4-1.3-10.3-4.2-14.6-8.9c-4.3-4.6-7-9.7-8.2-15.2c-0.5-5.3-0.7-11.7-0.7-19
			v-12.2c0-6.2-0.1-11-0.3-14.2c-0.3-4.9-0.7-9.9-1-14.8c-0.7-5.5-3.3-9.1-7.9-10.6c-0.2-0.1-1.4-0.4-3.6-0.9
			c-1.5-0.4-2.2-1.1-2.2-2.2c0.1-0.6,0.1-0.8,0.1-0.7c3.6-0.5,8-0.7,13.3-0.7c2.1,0,5.2,0,9.5,0c4.2,0,7.3,0,9.5,0
			c4.7,0,8.2,0,10.7,0c0.7,0.4,1,1,1,1.9c-2.7,0.7-5.8,1.8-9.4,3.4c-2,1.4-3.4,3.4-4.3,6c-0.6,1.8-1,4.2-1.2,7.4
			c-0.4,4.4-0.6,7.1-0.7,7.9v3c0,1.6,0,4,0,7.4c0,3.2,0,5.7,0,7.5v3.1c0.4,5.7,0.8,11.5,1.1,17.1c0.5,6.7,1.7,12.1,3.5,16.1
			c5.9,9.3,14.5,13.9,25.6,13.9h1.8c2.5,0,5.2-1,8-3.2c2.3-1.9,4.6-3.8,6.9-5.7c2.8-3.1,5.1-7.7,6.9-13.6c0.4-1,1-4.4,1.8-10.5
			c0.5-3.8,0.8-8.6,0.8-14.1c0-1.9,0-4.7,0-8.4c0-3.6,0-6.3,0-8.1v-2.3c-0.4-5-0.8-10.1-1.3-15.1c-1.2-5.7-4.2-9.3-9.1-10.6
			c-0.5-0.3-1.6-0.5-3.4-0.6c-1.4-0.1-2.4-0.6-3-1.5v-0.6c0-1,0.3-1.5,0.9-1.5c-0.7,0,2.9,0.1,10.9,0.2c7.9,0.1,16.1,0.2,24.4,0.2
			c0.2,0.4,0.3,0.9,0.3,1.5C291.9,75.5,291.8,76,291.5,76.4z"/>
		<path d="M358.1,170.9c0.2,0.2,0.3,0.4,0.3,0.7c0,0.2-0.3,0.4-0.9,0.7c-0.6,0.3-1,0.6-1.1,0.9c-3.9-0.5-8.8-0.7-14.5-0.7
			c-2.1,0-5.3,0-9.6,0s-7.4,0-9.6,0s-5-0.1-8.9-0.3c-0.5-0.3-0.7-0.7-0.7-1.2v-0.4c0.7-0.5,2.5-1.3,5.5-2.5c2.3-0.9,3.9-2,4.8-3.4
			c1.3-1,2.7-3.8,4.2-8.5c0.1-0.6,0.1-1.5,0.1-2.8v-3c0-2,0.1-3.5,0.4-4.5V132c0-18.6-0.4-33.1-1.3-43.5c-0.6-1.7-1.2-3.5-1.9-5.3
			c-0.7-1.8-1.9-3.1-3.6-3.7c-0.9-0.7-2.3-1.4-4.2-2c-1.9-0.6-3.2-1.3-4-1.9l0.3-1.3c5.9,0,14.4,0,25.5,0h17.2
			c0,0.2,0.2,0.4,0.5,0.5c0.4,0.1,0.5,0.3,0.5,0.5v0.2c-0.1,0.1-0.1,0.2-0.1,0.3v0.5c0,1.2-0.8,2-2.2,2.3c-2.2,0.5-3.4,0.9-3.7,1
			c-1.5,1-3,2-4.5,2.9c-1.6,1.3-2.5,2.8-2.7,4.4c-0.7,7.1-1,15.2-1,24.4c0,4.3,0.1,10.9,0.3,19.6c0.2,8.8,0.3,15.3,0.3,19.7v4.8
			c0.2,1.7,0.8,4.3,1.8,7.9c4,3.8,7.7,5.7,11.2,5.7c0.7,0,1.2,0,1.5-0.2c0,0.2,0.1,0.5,0.3,0.8c0.2,0.4,0.3,0.6,0.3,0.7
			C358.5,170.4,358.4,170.6,358.1,170.9z"/>
		<path d="M469.3,153.3c-0.4,1.3-1.3,3.4-2.8,6.3c-1.4,2.5-2.2,4.6-2.5,6.3c-0.6,0.7-1.2,1.9-1.8,3.6c-0.6,1.7-1.3,2.9-2.2,3.7
			c-3.3,0-9.9-0.1-19.6-0.2c-9.8-0.1-17.2-0.2-22-0.2h-34.2c-1.4-1-2.1-2-2.1-3c0-0.3,0.1-0.6,0.3-1c4.2-1.1,6.8-1.8,7.8-2.2
			c2.8-1.3,4.4-3.2,4.8-5.7c0.5-3.3,0.7-7.3,0.7-11.9c0-1.5,0-3.7,0-6.7c-0.1-2.9-0.1-5-0.1-6.4v-3.1c0-3.7-0.3-9.3-0.7-16.8
			c-0.5-7.5-0.8-13-0.8-16.6c0-0.6,0-1.5,0-2.7c0-1.3,0-2.2,0-2.8v-1.2c0-2-0.5-4.2-1.5-6.7c-1.3-3.3-2-5.5-2.2-6.6
			c-0.8-0.6-2.1-1.1-4-1.6c-1.9-0.5-3.2-1.1-4-1.8v-0.4c0-0.8,0.4-1.4,1.2-1.9c5.6,0,9.9,0,12.8,0c4.5,0,11.3-0.1,20.2-0.3
			c9-0.2,15.8-0.3,20.2-0.3c5,0,8.8,0.1,11.3,0.1l3.9,0.6c1.4,2.7,2.8,5.4,4.2,8.3c1.6,3.3,2.6,6.2,3,8.8c-0.2,0.1-0.3,0.4-0.3,0.7
			v0.6c0,0.6-0.2,0.9-0.7,1c-0.8-0.1-1.5-0.6-2.1-1.6s-1-1.6-1.3-1.8c-2.6-2.4-5.2-4.8-7.8-7.4c-3.3-2.9-6.3-4.6-9.2-5.1
			c-3.5-0.6-6.8-0.9-10.1-0.9c-1.8,0-4.9,0.2-9.5,0.6c-5.1,0.5-8,2.4-8.8,5.8c-0.4,2-0.6,4.4-0.6,7.4c0,1.5,0.1,3.8,0.2,7.1
			c0.1,3.1,0.2,5.5,0.2,7.2c0,1.9-0.1,3.3-0.4,4.2c0.9,1.3,1.3,3.3,1.3,6v1c0,3.1,0.6,5.4,1.8,6.9c0.2,0,0.4,0,0.7-0.1
			c0.4,0,0.7,0,0.8,0c0.2,0,0.5,0,1,0c0.4,0.1,0.7,0.1,0.9,0.1c1.1,0,2.1-0.2,3-0.7h1.6c6,0,10.6-2.1,13.6-6.4c0.7-2.5,1.7-6.1,3-11
			c0.2-1.8,1-2.7,2.4-2.7c1,0,1.5,0.8,1.5,2.4c-0.2,1.8-0.6,4.4-1,8c0.2,0.2,0.3,0.3,0.4,0.3h0.2c-0.3,0.3-0.4,0.7-0.4,1.1
			c0,0.2,0.1,0.5,0.2,0.9s0.2,0.7,0.2,1c0,0.4-0.1,0.7-0.3,0.9c0,0.5,0.1,5.3,0.4,14.5c0.1,5.9,0.6,11,1.6,15.1
			c-0.2,0.5-0.6,0.7-1.1,0.7c-0.1,0-0.4,0-0.8-0.2c-0.4-0.1-0.8-0.1-1.1-0.1h-0.4c-0.3-1.2-1-2.8-2.1-4.9c-0.4-3.1-1.6-6-3.6-8.8
			c-2-2.7-4.4-4.4-7.3-5.1c-2-0.5-4.2-0.7-6.6-0.7c-2.1,0-4.3,0.2-6.7,0.4c-0.6,1.1-1,2.4-1.2,4c-0.3,2.5-0.5,4-0.6,4.5
			c0.5,2.3,0.7,5.9,0.7,10.9v1.2c0,8.5,1.1,14.3,3.4,17.6c0.8,0.9,2,1.6,3.7,2.1c1.6,0.5,2.8,1,3.5,1.5c1.5,0.2,3.8,0.3,7,0.3
			c8.4,0,15.8-1.3,22.3-3.9c2.7-2.6,5.4-5.1,8.2-7.7c3.3-3.2,5.7-6.1,7.2-8.8c0.2,0,0.5-0.1,0.8-0.4c0.3-0.2,0.7-0.4,1-0.4h0.3
			c0.8,0.5,1.2,1.4,1.2,2.7C469.6,151.3,469.5,152.3,469.3,153.3z"/>
		<path d="M590.2,92.3c-0.4,0.6-0.9,0.9-1.5,0.9c-0.5,0-1.2-0.3-2.3-0.9c-5-6.1-10.8-10.9-17.3-14.3h-5.8c-0.1,0-2,0-5.8,0
			c-0.7,0-1.8,0-3.4,0h-2.4c-3.8,0-6.3,1-7.5,3.1c-0.9,4.9-1.3,11.1-1.3,18.5c0,2.6,0.1,6.4,0.3,11.5c0.2,5,0.3,8.8,0.3,11.2v1.8
			c0,2.6,0.1,6.6,0.4,12.2c0.2,5.5,0.4,9.7,0.4,12.4v1.8c0.9,6.1,1.5,9.8,2,10.9c1.3,3.9,3.7,6.3,7.3,7.4c3.2,0.2,5,1,5.5,2.4v0.1
			l-0.7,1.2h-4.1c-2.7,0-6.8-0.1-12.4-0.2c-5.5-0.2-9.7-0.2-12.5-0.2c-3.9,0-7.9,0.1-12.1,0.4c-0.6,0.3-1.2,0.4-1.8,0.4
			c-1.3,0-2.4-0.4-3.3-1v-0.3c0-1.2,0.7-2,2.1-2.4c2-0.4,3.1-0.7,3.4-1c5.3-1.5,8.5-5,9.5-10.6c0.5-16.9,0.7-27,0.7-30.3
			c-0.2-0.8-0.3-2.1-0.3-3.9v-2.2c0-2.1-0.3-3.7-0.7-4.9c0-2.7,0.1-7.1,0.3-13.1c0.2-5.9,0.3-10.5,0.3-13.5c0-4.4-0.1-7.7-0.3-9.7
			l-2.1-1.3c-1.4,0-3.7-0.1-7-0.3c-2.4-0.1-4.3-0.1-5.8-0.1c-2.4,0-5.4,0.1-9.1,0.4c-0.5,0.4-2.5,1.2-6.1,2.4
			c-2.6,0.9-4.1,2.3-4.6,4.2c-2.3,2.4-5.8,5.8-10.6,10.4c-0.9-0.4-1.3-1-1.3-1.9v-0.4c1.4-3.9,5-12.6,11-26c1,0.3,2.3,1.3,3.8,3
			c1.5,1.7,2.9,2.6,4.1,2.7c9,0.7,19.4,1,31.5,1c3.5,0,9.3,0,17.2-0.1c7.9-0.1,14.4-0.1,19.3-0.1c1.3,0,2.9-0.9,4.7-2.8
			c1.8-1.9,3.2-2.8,4.1-2.8c0.9,0,1.7,0.4,2.5,1.3C581.6,74.2,585.4,82,590.2,92.3z"/>
		<path d="M712.6,76.4c-5.6,1.8-9.3,4.4-10.9,7.8c-1.8,3.8-2.9,9-3.4,15.3c-0.2,5.3-0.4,10.7-0.7,16c0.5,0.2,0.7,0.8,0.7,1.8
			c0,0.2,0,0.5,0,0.9c0,0.3,0,0.5,0,0.6v0.3c0,13.7-1.1,24.2-3.4,31.4c-1.5,4.7-3.8,9.1-6.9,12.9c-3.5,4.4-7.4,7.5-11.9,9
			c-4.2,1.9-9.5,2.9-15.7,2.9c-3.6,0-7.9-0.6-13-1.8c-5.4-1.3-10.3-4.2-14.6-8.9c-4.3-4.6-7-9.7-8.2-15.2c-0.5-5.3-0.7-11.7-0.7-19
			v-12.2c0-6.2-0.1-11-0.3-14.2c-0.3-4.9-0.7-9.9-1-14.8c-0.7-5.5-3.3-9.1-7.9-10.6c-0.2-0.1-1.4-0.4-3.6-0.9
			c-1.5-0.4-2.2-1.1-2.2-2.2c0.1-0.6,0.1-0.8,0.1-0.7c3.6-0.5,8-0.7,13.3-0.7c2.1,0,5.2,0,9.5,0c4.2,0,7.3,0,9.5,0
			c4.7,0,8.2,0,10.7,0c0.7,0.4,1,1,1,1.9c-2.7,0.7-5.8,1.8-9.4,3.4c-2,1.4-3.5,3.4-4.3,6c-0.6,1.8-1,4.2-1.2,7.4
			c-0.4,4.4-0.7,7.1-0.7,7.9v3c0,1.6,0,4,0,7.4c0,3.2,0,5.7,0,7.5v3.1c0.4,5.7,0.8,11.5,1.1,17.1c0.5,6.7,1.7,12.1,3.5,16.1
			c5.9,9.3,14.5,13.9,25.6,13.9h1.8c2.5,0,5.2-1,8-3.2c2.3-1.9,4.6-3.8,6.9-5.7c2.8-3.1,5.1-7.7,6.9-13.6c0.4-1,1-4.4,1.8-10.5
			c0.5-3.8,0.7-8.6,0.7-14.1c0-1.9,0-4.7,0-8.4c0-3.6,0-6.3,0-8.1v-2.3c-0.4-5-0.8-10.1-1.3-15.1c-1.2-5.7-4.2-9.3-9.1-10.6
			c-0.5-0.3-1.7-0.5-3.5-0.6c-1.4-0.1-2.4-0.6-3-1.5v-0.6c0-1,0.3-1.5,0.9-1.5c-0.7,0,2.9,0.1,10.9,0.2c7.9,0.1,16.1,0.2,24.4,0.2
			c0.2,0.4,0.3,0.9,0.3,1.5C712.9,75.5,712.8,76,712.6,76.4z"/>
		<path d="M800,138.8v0.9c0,5-0.8,10.2-2.5,15.5c-3.2,5.7-7.2,10.3-12.2,13.6c-5.2,3.6-10.9,5.4-16.9,5.4c-1.7,0-3.4-0.1-5.1-0.3
			c-0.3,0.2-0.8,0.3-1.5,0.3s-1.8-0.2-3.3-0.5c-1.5-0.3-2.6-0.5-3.4-0.5c-1.5-0.2-5-1.5-10.6-3.8c-0.5,0.1-1.3,0.7-2.4,1.7
			c-1.1,1-1.9,1.6-2.5,1.6c-0.8,0-1.4-0.4-1.9-1.2c-0.7-11.5-1-19.2-1-23.4v-1c0-1,0.2-1.7,0.7-2.1h0.4c0.9,0,1.5,0.4,1.9,1
			c0.7,4.5,2.4,8.9,5.2,12.9c2.7,4,6.1,7.2,10.2,9.2c3,1.5,6.5,2.2,10.6,2.2c2.6,0,5.3-0.4,8.2-1.2c7.3-3.5,11.6-7.8,12.8-12.7
			c0.4-1.7,0.6-3.4,0.6-5.1c0-5.2-1.5-9.7-4.6-13.4c-3.1-3.7-8.8-6.6-16.9-8.7c-8.1-2-13.7-4.7-16.6-8c-7.5-5.2-11.3-12.6-11.3-22.2
			v-1.9c0-4.7,1.5-9.3,4.6-13.6c3.1-4.3,6.9-7.4,11.5-9.1c4.9-1.9,9.6-2.8,13.9-2.8c7.1,0,13.3,1.9,18.5,5.7
			c0.5-0.1,1.1-0.5,1.9-1.2c0.7-0.7,1.3-1,1.7-1s0.8,0.1,1.2,0.4c0.8,4.3,1.7,10.9,2.7,19.7c-0.1,0.5-0.8,0.7-2.1,0.7
			c-0.5-0.3-0.8-0.9-1-1.8c-0.1-0.9-0.4-1.5-0.7-1.8c-2-4.8-5.1-9-9.4-12.4c-4.6-3.7-9.4-5.5-14.3-5.5h-0.3
			c-6.2,0-11.4,3.3-15.6,10.1c-1.2,2.7-1.8,5.4-1.8,8.2V94c0,3.7,1.6,7.3,4.8,10.7c2.6,2.9,5.7,5.1,9.5,6.7
			c1.3,0.6,5.4,1.9,12.3,3.9c5.6,1.7,10,3.5,12.9,5.5C794.8,125.4,798.7,131.3,800,138.8z"/>
	</g>
	<g>
		<g>
			<path d="M298.3,198.5c-1,0.1-1.8,0.7-2.4,1.8c-0.5,0.9-1,1.8-1.5,2.7c-1.1,2.4-2.9,5.9-5.1,10.8c-0.1,0.4-0.4,1.1-0.8,1.9
				c-0.4,0.9-0.7,1.6-0.8,2l0,0c0,0-0.1,0-0.1,0.1c-0.1,0.1-0.1,0.1-0.2,0.1l0,0c0,0,0,0-0.1,0c-0.2-0.6-0.8-2.9-1.8-6.8
				c-0.7-2.7-1.4-5-2-6.8c-0.2,0.2-0.6,0.8-1,1.9c-1,2.5-2.3,6-3.8,10.8c0,0,0.1,0.1,0.1,0.2s0,0.2-0.1,0.3
				c-0.1,0.2-0.1,0.3-0.1,0.3l0,0c0,0.1-0.1,0.1-0.3,0.1c-0.1,0-0.3,0-0.4-0.1c-0.8-2.5-1.7-5.5-3-9.1c-1-3-2.1-5.9-3.2-8.9
				c-0.2-0.3-0.5-0.5-0.7-0.8c-0.3-0.3-0.5-0.4-0.8-0.4h-0.1c-0.2-0.1-0.3-0.3-0.4-0.6l0.1-0.1v-0.1h3.8c0.9,0,2.2,0,3.8,0
				c0.1,0.1,0.1,0.2,0.1,0.3c0,0.1-0.1,0.2-0.2,0.2c-1.1,0.3-1.7,0.8-1.7,1.5c0,0.2,0,0.4,0,0.6c0,0.7,0.1,1.6,0.4,2.6
				c0.2,0.8,0.5,1.6,0.8,2.5c0.5,1.5,1.3,3.6,2.4,6.5c0.1,0,0.3-0.1,0.3-0.2c0.1-0.1,0.1-0.3,0.2-0.4c0.6-1.5,1.3-3.2,2.1-5.2
				c0.3-0.7,0.5-1.3,0.8-1.9c0.3-0.8,0.5-1.5,0.6-2.1c0-0.1,0-0.3,0-0.5c0-0.5-0.1-1-0.4-1.5c-0.2-0.5-0.5-0.9-0.7-1.4
				c-0.1-0.1-0.4-0.2-0.8-0.2c-0.5,0-0.7-0.1-0.7-0.3c0-0.1,0-0.2,0.1-0.4h1c0.7,0,1.7,0,3.1-0.1c1.4,0,2.4-0.1,3.1-0.1
				c0.1,0.1,0.2,0.2,0.2,0.3v0.1c-0.1,0.1-0.2,0.2-0.4,0.2h-0.2c-0.1,0-0.3,0-0.4,0.1c-0.3,0.1-0.5,0.1-0.7,0.2
				c-0.2,0.1-0.4,0.3-0.5,0.5c-0.1,0.3-0.2,0.6-0.2,1c0,0.3,0.1,0.7,0.2,1.3c0.1,0.6,0.2,1,0.2,1.3c0.4,1.6,0.9,3.2,1.3,4.9
				c0.5,1.9,1,3.4,1.5,4.7c0.5-0.7,1.1-1.6,1.6-2.8c0.5-1,0.9-1.9,1.4-2.8c0.2-0.6,0.6-1.6,1.4-3.1c0.6-1.3,1-2.3,1.2-3.2
				c0-0.6-0.2-1-0.5-1.4c-0.2-0.1-0.5-0.3-0.9-0.4c-0.4-0.1-0.7-0.2-0.8-0.4c0,0,0,0,0-0.1c0,0,0,0,0-0.1c0-0.2,0.1-0.3,0.3-0.4
				c0.3,0.1,0.8,0.1,1.4,0.1c0.3,0,0.9,0,1.5-0.1c0.7,0,1.2-0.1,1.5-0.1c0.5,0,1,0,1.5,0.1c0,0,0.1,0.1,0.1,0.3
				C298.4,198.3,298.4,198.4,298.3,198.5z"/>
			<path d="M337.6,198.5c-1,0.1-1.8,0.7-2.4,1.8c-0.5,0.9-1,1.8-1.5,2.7c-1.1,2.4-2.9,5.9-5.1,10.8c-0.1,0.4-0.4,1.1-0.8,1.9
				c-0.4,0.9-0.7,1.6-0.8,2l0,0c0,0-0.1,0-0.1,0.1c-0.1,0.1-0.1,0.1-0.2,0.1l0,0c0,0,0,0-0.1,0c-0.2-0.6-0.8-2.9-1.8-6.8
				c-0.7-2.7-1.4-5-2-6.8c-0.2,0.2-0.6,0.8-1,1.9c-1,2.5-2.3,6-3.8,10.8c0,0,0.1,0.1,0.1,0.2s0,0.2-0.1,0.3
				c-0.1,0.2-0.1,0.3-0.1,0.3l0,0c0,0.1-0.1,0.1-0.3,0.1c-0.1,0-0.3,0-0.4-0.1c-0.8-2.5-1.7-5.5-3-9.1c-1-3-2.1-5.9-3.2-8.9
				c-0.2-0.3-0.5-0.5-0.7-0.8c-0.3-0.3-0.5-0.4-0.8-0.4h-0.1c-0.2-0.1-0.3-0.3-0.4-0.6l0.1-0.1v-0.1h3.8c0.9,0,2.2,0,3.8,0
				c0.1,0.1,0.1,0.2,0.1,0.3c0,0.1-0.1,0.2-0.2,0.2c-1.1,0.3-1.7,0.8-1.7,1.5c0,0.2,0,0.4,0,0.6c0,0.7,0.1,1.6,0.4,2.6
				c0.2,0.8,0.5,1.6,0.8,2.5c0.5,1.5,1.3,3.6,2.4,6.5c0.1,0,0.3-0.1,0.3-0.2c0.1-0.1,0.1-0.3,0.2-0.4c0.6-1.5,1.3-3.2,2.1-5.2
				c0.3-0.7,0.5-1.3,0.8-1.9c0.3-0.8,0.5-1.5,0.6-2.1c0-0.1,0-0.3,0-0.5c0-0.5-0.1-1-0.4-1.5c-0.2-0.5-0.5-0.9-0.7-1.4
				c-0.1-0.1-0.4-0.2-0.8-0.2c-0.5,0-0.7-0.1-0.7-0.3c0-0.1,0-0.2,0.1-0.4h1c0.7,0,1.7,0,3.1-0.1c1.4,0,2.4-0.1,3.1-0.1
				c0.1,0.1,0.2,0.2,0.2,0.3v0.1c-0.1,0.1-0.2,0.2-0.4,0.2h-0.2c-0.1,0-0.3,0-0.4,0.1c-0.3,0.1-0.5,0.1-0.7,0.2
				c-0.2,0.1-0.4,0.3-0.5,0.5c-0.1,0.3-0.2,0.6-0.2,1c0,0.3,0.1,0.7,0.2,1.3c0.1,0.6,0.2,1,0.2,1.3c0.4,1.6,0.9,3.2,1.3,4.9
				c0.5,1.9,1,3.4,1.5,4.7c0.5-0.7,1.1-1.6,1.6-2.8c0.5-1,0.9-1.9,1.4-2.8c0.2-0.6,0.6-1.6,1.4-3.1c0.6-1.3,1-2.3,1.2-3.2
				c0-0.6-0.2-1-0.5-1.4c-0.2-0.1-0.5-0.3-0.9-0.4c-0.4-0.1-0.7-0.2-0.8-0.4c0,0,0,0,0-0.1c0,0,0,0,0-0.1c0-0.2,0.1-0.3,0.3-0.4
				c0.3,0.1,0.8,0.1,1.4,0.1c0.3,0,0.9,0,1.5-0.1c0.7,0,1.2-0.1,1.5-0.1c0.5,0,1,0,1.5,0.1c0,0,0.1,0.1,0.1,0.3
				C337.6,198.3,337.6,198.4,337.6,198.5z"/>
			<path d="M376.9,198.5c-1,0.1-1.8,0.7-2.4,1.8c-0.5,0.9-1,1.8-1.5,2.7c-1.1,2.4-2.9,5.9-5.1,10.8c-0.1,0.4-0.4,1.1-0.8,1.9
				c-0.4,0.9-0.7,1.6-0.8,2l0,0c0,0-0.1,0-0.1,0.1c-0.1,0.1-0.1,0.1-0.2,0.1l0,0c0,0,0,0-0.1,0c-0.2-0.6-0.8-2.9-1.8-6.8
				c-0.7-2.7-1.4-5-2-6.8c-0.2,0.2-0.6,0.8-1,1.9c-1,2.5-2.3,6-3.8,10.8c0,0,0.1,0.1,0.1,0.2s0,0.2-0.1,0.3
				c-0.1,0.2-0.1,0.3-0.1,0.3l0,0c0,0.1-0.1,0.1-0.3,0.1c-0.1,0-0.3,0-0.4-0.1c-0.8-2.5-1.7-5.5-3-9.1c-1-3-2.1-5.9-3.2-8.9
				c-0.2-0.3-0.5-0.5-0.7-0.8c-0.3-0.3-0.5-0.4-0.8-0.4h-0.1c-0.2-0.1-0.3-0.3-0.4-0.6l0.1-0.1v-0.1h3.8c0.9,0,2.2,0,3.8,0
				c0.1,0.1,0.1,0.2,0.1,0.3c0,0.1-0.1,0.2-0.2,0.2c-1.1,0.3-1.7,0.8-1.7,1.5c0,0.2,0,0.4,0,0.6c0,0.7,0.1,1.6,0.4,2.6
				c0.2,0.8,0.5,1.6,0.8,2.5c0.5,1.5,1.3,3.6,2.4,6.5c0.1,0,0.3-0.1,0.3-0.2c0.1-0.1,0.1-0.3,0.2-0.4c0.6-1.5,1.3-3.2,2.1-5.2
				c0.3-0.7,0.5-1.3,0.8-1.9c0.3-0.8,0.5-1.5,0.6-2.1c0-0.1,0-0.3,0-0.5c0-0.5-0.1-1-0.4-1.5c-0.2-0.5-0.5-0.9-0.7-1.4
				c-0.1-0.1-0.4-0.2-0.8-0.2c-0.5,0-0.7-0.1-0.7-0.3c0-0.1,0-0.2,0.1-0.4h1c0.7,0,1.7,0,3.1-0.1c1.4,0,2.4-0.1,3.1-0.1
				c0.1,0.1,0.2,0.2,0.2,0.3v0.1c-0.1,0.1-0.2,0.2-0.4,0.2H366c-0.1,0-0.3,0-0.4,0.1c-0.3,0.1-0.5,0.1-0.7,0.2
				c-0.2,0.1-0.4,0.3-0.5,0.5c-0.1,0.3-0.2,0.6-0.2,1c0,0.3,0.1,0.7,0.2,1.3c0.1,0.6,0.2,1,0.2,1.3c0.4,1.6,0.9,3.2,1.3,4.9
				c0.5,1.9,1,3.4,1.5,4.7c0.5-0.7,1.1-1.6,1.6-2.8c0.5-1,0.9-1.9,1.4-2.8c0.2-0.6,0.6-1.6,1.4-3.1c0.6-1.3,1-2.3,1.2-3.2
				c0-0.6-0.2-1-0.5-1.4c-0.2-0.1-0.5-0.3-0.9-0.4c-0.4-0.1-0.7-0.2-0.8-0.4c0,0,0,0,0-0.1c0,0,0,0,0-0.1c0-0.2,0.1-0.3,0.3-0.4
				c0.3,0.1,0.8,0.1,1.4,0.1c0.3,0,0.9,0,1.5-0.1c0.7,0,1.2-0.1,1.5-0.1c0.5,0,1,0,1.5,0.1c0,0,0.1,0.1,0.1,0.3
				C377,198.3,376.9,198.4,376.9,198.5z"/>
			<path d="M386.7,216.3c0,0.3-0.2,0.6-0.5,1.1c-0.3,0.3-0.7,0.4-1.1,0.4c-0.2,0-0.4,0-0.8-0.1c-0.2,0-0.5-0.3-0.9-0.9
				c-0.1-0.2-0.1-0.6-0.1-1.1v-0.3c0.3-0.7,0.8-1,1.5-1.1c0.1,0,0.2,0,0.3,0c0.4,0,0.7,0.1,1,0.4c0.3,0.3,0.5,0.6,0.6,1.1
				c0,0,0,0,0,0.1v0.1v0.1V216.3z"/>
			<path d="M420.1,201.6c-0.1,0.1-0.2,0.2-0.3,0.2s-0.3-0.1-0.4-0.2c-1-1.2-2.2-2.2-3.5-2.8h-1.2c0,0-0.4,0-1.2,0
				c-0.1,0-0.4,0-0.7,0h-0.4c-0.8,0-1.3,0.2-1.5,0.6c-0.2,1-0.3,2.2-0.3,3.7c0,0.5,0,1.3,0.1,2.3c0,1,0.1,1.7,0.1,2.2v0.4
				c0,0.5,0,1.3,0.1,2.4c0,1.1,0.1,1.9,0.1,2.5v0.4c0.2,1.2,0.3,1.9,0.4,2.2c0.3,0.8,0.8,1.3,1.5,1.5c0.6,0,1,0.2,1.1,0.5l0,0
				l-0.1,0.2h-0.8c-0.5,0-1.4,0-2.5,0c-1.1,0-1.9,0-2.5,0c-0.8,0-1.6,0-2.4,0.1c-0.1,0.1-0.2,0.1-0.4,0.1c-0.3,0-0.5-0.1-0.7-0.2
				v-0.1c0-0.2,0.1-0.4,0.4-0.5c0.4-0.1,0.6-0.1,0.7-0.2c1.1-0.3,1.7-1,1.9-2.1c0.1-3.4,0.2-5.4,0.2-6c0-0.2-0.1-0.4-0.1-0.8v-0.5
				c0-0.4,0-0.8-0.1-1c0-0.5,0-1.4,0.1-2.6c0-1.2,0.1-2.1,0.1-2.7c0-0.9,0-1.5-0.1-1.9l-0.4-0.3c-0.3,0-0.8,0-1.4-0.1
				c-0.5,0-0.9,0-1.2,0c-0.5,0-1.1,0-1.8,0.1c-0.1,0.1-0.5,0.2-1.2,0.5c-0.5,0.2-0.8,0.5-0.9,0.8c-0.5,0.5-1.2,1.2-2.1,2.1
				c-0.2-0.1-0.3-0.2-0.3-0.4v-0.3c0.3-0.8,1-2.5,2.2-5.2c0.2,0.1,0.5,0.3,0.8,0.6c0.3,0.3,0.6,0.5,0.8,0.5c1.8,0.1,3.9,0.2,6.3,0.2
				c0.7,0,1.8,0,3.4,0c1.6,0,2.9,0,3.8,0c0.3,0,0.6-0.2,0.9-0.6c0.4-0.4,0.6-0.6,0.8-0.6s0.3,0.1,0.5,0.3
				C418.4,198,419.2,199.5,420.1,201.6z"/>
			<path d="M451.3,197.9c0,0.1,0,0.1,0,0.1c0,0.2-0.1,0.3-0.3,0.4c-0.7,0.1-1.1,0.2-1.2,0.2c-0.4,0.1-0.8,0.3-1,0.6
				c-0.3,0.7-0.4,1.5-0.4,2.4v0.4c0,0.2,0,0.6,0,1.1c0,0.5,0,0.9,0,1.1c0,1,0,2.5,0,4.6c0,2,0,3.5,0,4.6c0.1,0.1,0.1,0.1,0.1,0.1
				l0,0c0,0.1-0.1,0.3-0.1,0.5c0,0.1,0,0.3,0,0.5c0,0.2,0,0.3,0,0.4c0.1,0.2,0.2,0.4,0.3,0.7c0.1,0.3,0.3,0.5,0.5,0.6
				c0.4,0.4,1,0.6,1.7,0.6c0,0,0,0.1,0.1,0.2s0.1,0.1,0.1,0.2v0.1l-0.2,0.2l0.1,0.1c-0.5,0-1.2,0-2.2-0.1c-1,0-1.7,0-2.2,0
				c-1.2,0-2.5,0-3.7,0.1c-0.1-0.1-0.1-0.3-0.2-0.5c0.4-0.1,0.9-0.2,1.6-0.5c0.7-1,1-1.8,1-2.4c0-0.3,0-0.5-0.1-0.7
				c0.1-1.9,0.1-2.9,0.1-2.8c0-0.7,0-1.3-0.1-1.9c-0.1-0.2-0.3-0.3-0.5-0.4c-0.2,0-0.5-0.1-0.7-0.1c-0.5,0-1.5,0-3-0.1
				c-1.2,0-2.2-0.1-3-0.1c-0.8,0-1.7,0-2.6,0.1l-0.2,0.3c0,2.1-0.1,3.7-0.1,4.7c0.1,0.1,0.1,0.2,0.1,0.2v0.4c0,0.3-0.1,0.4-0.1,0.5
				c0.1,1,0.5,1.8,1.3,2.2c0.1,0.1,0.5,0.1,1,0.2c0.4,0,0.7,0.2,1,0.3c-0.1,0.2-0.1,0.4-0.1,0.5h-1.4c-2.6,0-5,0-7.1,0.2
				c0-0.2-0.1-0.4-0.2-0.7c0.4-0.1,1.1-0.2,1.9-0.4c0.2-0.3,0.5-0.8,0.9-1.5V215c0-0.1,0-0.2,0-0.4c0-0.2,0-0.3,0-0.4
				c0-0.2,0-0.4-0.1-0.5l0,0c0,0,0.1,0,0.1-0.1c-0.1-0.9-0.1-1.8-0.1-2.7c0-0.6,0-1.6,0-2.8c0-1.2,0-2.2,0-2.8c0-1,0-1.9-0.1-2.5
				c0-0.7,0-1.4-0.1-2.2c-0.1-0.8-0.4-1.4-1-1.7c-0.1-0.1-0.4-0.2-0.9-0.3c-0.4-0.1-0.6-0.2-0.6-0.5c0-0.1,0-0.2,0-0.2
				c1.8,0,4.6,0.1,8.5,0.3v0.3c-0.4,0-0.9,0.1-1.6,0.3c-1,0.6-1.5,1.6-1.5,3.1c0,0.2,0,0.6,0.1,1c0,0.5,0.1,0.8,0.1,1
				c0,0.5,0,0.9-0.1,1.2c0.1,0.2,0.1,0.4,0.1,0.7v0.3c0,0.3,0,0.5,0.1,0.6c0.4,0.2,1.2,0.4,2.2,0.4h0.7c0.4,0,1.1,0,2,0.1
				s1.6,0.1,2,0.1c1.1,0,2-0.1,2.7-0.3c0.2-0.3,0.4-0.7,0.4-1.3c0-0.1,0-0.2,0-0.4c-0.1-0.2-0.1-0.3-0.1-0.4
				c0.1-0.3,0.1-0.8,0.1-1.5v-1.8c0-0.5-0.1-1.1-0.4-2c-0.4-0.7-0.8-1.1-1.2-1.1c0,0-0.1,0-0.2,0s-0.2,0-0.3-0.1
				c-0.1,0-0.3-0.1-0.3-0.1c-0.1,0-0.2,0-0.2,0.1c-0.2,0-0.3-0.1-0.4-0.2c0-0.3,0.2-0.5,0.5-0.5c0.1,0,0.4,0,0.7,0
				c0.3,0,0.6,0,0.8,0c0.2,0,0.6,0,1.1,0c0.5,0,0.9,0,1.1,0c1.5,0,2.7,0,3.7-0.1h0.3C451,197.7,451.2,197.8,451.3,197.9z"/>
			<path d="M480.6,213.8c-0.1,0.3-0.3,0.7-0.6,1.3c-0.3,0.5-0.4,0.9-0.5,1.3c-0.1,0.1-0.2,0.4-0.4,0.7c-0.1,0.3-0.3,0.6-0.4,0.8
				c-0.7,0-2,0-3.9,0s-3.4,0-4.4,0h-6.8c-0.3-0.2-0.4-0.4-0.4-0.6c0-0.1,0-0.1,0.1-0.2c0.8-0.2,1.4-0.4,1.6-0.4
				c0.6-0.3,0.9-0.6,1-1.1c0.1-0.7,0.2-1.4,0.2-2.4c0-0.3,0-0.7,0-1.3c0-0.6,0-1,0-1.3V210c0-0.7,0-1.9-0.1-3.3
				c-0.1-1.5-0.1-2.6-0.1-3.3c0-0.1,0-0.3,0-0.5c0-0.3,0-0.4,0-0.6V202c0-0.4-0.1-0.8-0.3-1.3c-0.3-0.7-0.4-1.1-0.4-1.3
				c-0.2-0.1-0.4-0.2-0.8-0.3c-0.4-0.1-0.6-0.2-0.8-0.4v-0.1c0-0.2,0.1-0.3,0.2-0.4c1.1,0,2,0,2.5,0c0.9,0,2.2,0,4-0.1
				c1.8,0,3.1-0.1,4-0.1c1,0,1.8,0,2.3,0l0.8,0.1c0.3,0.5,0.6,1.1,0.8,1.7c0.3,0.7,0.5,1.2,0.6,1.7c0,0-0.1,0.1-0.1,0.2v0.1
				c0,0.1,0,0.2-0.1,0.2c-0.2,0-0.3-0.1-0.4-0.3c-0.1-0.2-0.2-0.3-0.3-0.4c-0.5-0.5-1-1-1.6-1.5c-0.7-0.6-1.3-0.9-1.8-1
				c-0.7-0.1-1.4-0.2-2-0.2c-0.4,0-1,0-1.9,0.1c-1,0.1-1.6,0.5-1.7,1.2c-0.1,0.4-0.1,0.9-0.1,1.5c0,0.3,0,0.8,0,1.4s0,1.1,0,1.4
				c0,0.4,0,0.7-0.1,0.8c0.2,0.3,0.3,0.7,0.3,1.2v0.2c0,0.6,0.1,1.1,0.4,1.4h0.1c0.1,0,0.1,0,0.2,0c0,0,0.1,0,0.2,0s0.1,0,0.2,0
				c0.2,0,0.4,0,0.6-0.1h0.3c1.2,0,2.1-0.4,2.7-1.3c0.1-0.5,0.3-1.2,0.6-2.2c0-0.4,0.2-0.5,0.5-0.5c0.2,0,0.3,0.2,0.3,0.5
				c0,0.4-0.1,0.9-0.2,1.6l0.1,0.1l0,0c-0.1,0.1-0.1,0.1-0.1,0.2c0,0,0,0.1,0,0.2s0,0.2,0,0.2c0,0.1,0,0.1-0.1,0.2
				c0,0.1,0,1.1,0.1,2.9c0,1.2,0.1,2.2,0.3,3c0,0.1-0.1,0.1-0.2,0.1c0,0-0.1,0-0.2,0s-0.2,0-0.2,0h-0.1c-0.1-0.2-0.2-0.6-0.4-1
				c-0.1-0.6-0.3-1.2-0.7-1.7c-0.4-0.5-0.9-0.9-1.5-1c-0.4-0.1-0.8-0.2-1.3-0.2c-0.4,0-0.9,0-1.4,0.1c-0.1,0.2-0.2,0.5-0.2,0.8
				c-0.1,0.5-0.1,0.8-0.1,0.9c0.1,0.5,0.1,1.2,0.1,2.2v0.2c0,1.7,0.2,2.9,0.7,3.5c0.2,0.2,0.4,0.3,0.7,0.4c0.3,0.1,0.6,0.2,0.7,0.3
				c0.3,0,0.8,0.1,1.4,0.1c1.7,0,3.1-0.3,4.4-0.8c0.5-0.5,1.1-1,1.7-1.5c0.7-0.6,1.1-1.2,1.4-1.7c0,0,0.1,0,0.2-0.1
				c0.1,0,0.1-0.1,0.2-0.1h0.1c0.2,0.1,0.2,0.3,0.2,0.5C480.6,213.4,480.6,213.6,480.6,213.8z"/>
			<path d="M524.8,221c-0.1,0.3-0.7,0.9-1.7,1.7c-1.4,0.9-3.1,1.3-5.1,1.3h-0.4c-1.7-0.4-3.4-1-5-1.7c-1.6-0.7-3.2-1.4-4.8-2.2
				c-1-0.4-3.1-1-6.2-1.8c-1.9-0.5-3.6-1.3-5.2-2.5c-1.7-1.3-2.9-2.9-3.5-4.6c-0.2-0.5-0.3-1.2-0.6-2.2v-3.1c0.3-1.4,1-2.8,2.1-4.1
				c1.1-1.3,2.3-2.2,3.7-2.9c0.7-0.4,1.8-0.7,3.1-1h0.5c1.9,0,3.7,0.5,5.4,1.5c1.7,1,2.9,2.4,3.7,4.1c0.2,0.3,0.3,0.7,0.5,1.4
				c0.1,0.6,0.3,1.1,0.4,1.4c0,0.1,0.1,0.4,0.1,0.7c0,0.2,0,0.6-0.1,1.1c-0.1,0.5-0.1,0.8-0.1,1.1v0.1c-0.5,2.3-1.3,4-2.4,5.2
				c-0.1,0.2-0.3,0.5-0.5,0.7c-0.4,0.4-0.6,0.6-0.7,0.6c-0.3,0.2-0.7,0.5-1.3,1c1.2,0.5,3.3,1.4,6.5,2.8c0.7,0.3,1.4,0.7,2.1,1
				c0.6,0.3,1.3,0.5,2.2,0.7c1.1,0.4,2.2,0.6,3.5,0.6c0.8,0,1.9-0.4,3.3-1.2h0.1C524.5,220.7,524.6,220.8,524.8,221z M507.2,202.4
				c-0.5-1-1.2-2-2.2-2.9c-0.8-0.7-1.9-1.1-3.2-1.1c-0.7,0-1.3,0.1-1.9,0.4c-2.2,1.5-3.5,3.3-3.9,5.3c-0.1,0.3-0.2,0.9-0.2,1.7
				c-0.1,0.7-0.1,1.5-0.1,2.6c0,0.7,0,1.2,0,1.6c0.2,1.3,0.7,2.5,1.5,3.7s1.8,2.1,2.9,2.8c0.2,0,0.5,0.1,0.8,0.3c0.2,0,0.5,0,1,0.1
				c0.5,0.1,0.8,0.1,1.1,0.1c0.7,0,1.2-0.2,1.6-0.5c1.2-0.4,2.1-1.4,2.8-3c0.2-0.3,0.3-0.7,0.5-1.2c0.1-0.4,0.2-0.8,0.4-1.2
				c0.1-0.6,0.2-1.3,0.2-2.2C508.4,206.7,507.9,204.6,507.2,202.4z"/>
			<path d="M544.9,198.4c-1.1,0.4-1.8,0.9-2.2,1.5c-0.4,0.8-0.6,1.8-0.7,3c0,1.1-0.1,2.1-0.2,3.2c0.1,0,0.2,0.2,0.2,0.4
				c0,0,0,0.1,0,0.2c0,0.1,0,0.1,0,0.1v0.1c0,2.7-0.2,4.8-0.7,6.2c-0.3,0.9-0.8,1.8-1.4,2.6c-0.7,0.9-1.5,1.5-2.4,1.8
				c-0.8,0.4-1.9,0.6-3.1,0.6c-0.7,0-1.6-0.1-2.6-0.4c-1.1-0.3-2.1-0.9-2.9-1.8c-0.9-0.9-1.4-1.9-1.7-3c-0.1-1.1-0.1-2.3-0.1-3.8
				v-2.4c0-1.2,0-2.2-0.1-2.8c-0.1-1-0.1-2-0.2-2.9c-0.1-1.1-0.7-1.8-1.6-2.1c0,0-0.3-0.1-0.7-0.2c-0.3-0.1-0.4-0.2-0.4-0.4
				c0-0.1,0-0.2,0-0.1c0.7-0.1,1.6-0.2,2.6-0.2c0.4,0,1.1,0,1.9,0c0.8,0,1.5,0,1.9,0c0.9,0,1.7,0,2.1,0c0.1,0.1,0.2,0.2,0.2,0.4
				c-0.5,0.1-1.2,0.4-1.9,0.7c-0.4,0.3-0.7,0.7-0.9,1.2c-0.1,0.4-0.2,0.8-0.2,1.5c-0.1,0.9-0.1,1.4-0.2,1.6v0.6c0,0.3,0,0.8,0,1.5
				c0,0.6,0,1.1,0,1.5v0.6c0.1,1.1,0.2,2.3,0.2,3.4c0.1,1.3,0.3,2.4,0.7,3.2c1.2,1.8,2.9,2.8,5.1,2.8h0.4c0.5,0,1-0.2,1.6-0.6
				c0.5-0.4,0.9-0.8,1.4-1.1c0.6-0.6,1-1.5,1.4-2.7c0.1-0.2,0.2-0.9,0.4-2.1c0.1-0.8,0.2-1.7,0.2-2.8c0-0.4,0-0.9,0-1.7
				c0-0.7,0-1.3,0-1.6v-0.7c-0.1-1-0.2-2-0.3-3c-0.2-1.1-0.8-1.8-1.8-2.1c-0.1-0.1-0.3-0.1-0.7-0.1c-0.3,0-0.5-0.1-0.6-0.3v-0.1
				c0-0.2,0.1-0.3,0.2-0.3c-0.1,0,0.6,0,2.2,0c1.6,0,3.2,0,4.9,0c0,0.1,0.1,0.2,0.1,0.3C545,198.2,544.9,198.3,544.9,198.4z"/>
			<path d="M565,217.4l0.1,0.1c0,0-0.1,0.1-0.2,0.2c-0.1,0.1-0.2,0.1-0.2,0.2c-0.8-0.1-1.7-0.2-2.9-0.2c-0.4,0-1.1,0-1.9,0
				c-0.8,0-1.5,0-1.9,0c-0.4,0-1,0-1.8-0.1c-0.1-0.1-0.2-0.1-0.2-0.2v-0.1c0.1-0.1,0.5-0.3,1.1-0.5c0.5-0.2,0.8-0.4,1-0.7
				c0.3-0.2,0.5-0.8,0.8-1.7c0-0.1,0-0.3,0-0.6v-0.6c0-0.4,0-0.7,0.1-0.9v-2.8c0-3.7-0.1-6.6-0.3-8.7c-0.1-0.3-0.2-0.7-0.4-1.1
				c-0.1-0.4-0.4-0.6-0.7-0.7c-0.2-0.1-0.5-0.3-0.8-0.4c-0.4-0.1-0.6-0.3-0.8-0.4l0.1-0.3c1.2,0,2.9,0,5.1,0h3.4c0,0,0,0.1,0.1,0.1
				s0.1,0.1,0.1,0.1l0,0c0,0,0,0,0,0.1v0.1c0,0.2-0.1,0.4-0.4,0.5c-0.4,0.1-0.7,0.2-0.7,0.2c-0.3,0.2-0.6,0.4-0.9,0.6
				c-0.3,0.3-0.5,0.6-0.5,0.9c-0.1,1.4-0.2,3-0.2,4.8c0,0.9,0,2.2,0.1,3.9c0,1.7,0.1,3,0.1,3.9v1c0,0.3,0.2,0.9,0.4,1.6
				c0.8,0.8,1.5,1.1,2.2,1.1c0.1,0,0.2,0,0.3,0c0,0,0,0.1,0.1,0.2c0,0.1,0.1,0.1,0.1,0.1C565.1,217.3,565,217.4,565,217.4z"/>
			<path d="M594.1,213.8c-0.1,0.3-0.3,0.7-0.6,1.3c-0.3,0.5-0.4,0.9-0.5,1.3c-0.1,0.1-0.2,0.4-0.4,0.7c-0.1,0.3-0.3,0.6-0.4,0.8
				c-0.7,0-2,0-3.9,0c-2,0-3.4,0-4.4,0H577c-0.3-0.2-0.4-0.4-0.4-0.6c0-0.1,0-0.1,0.1-0.2c0.8-0.2,1.4-0.4,1.6-0.4
				c0.6-0.3,0.9-0.6,1-1.1c0.1-0.7,0.2-1.4,0.2-2.4c0-0.3,0-0.7,0-1.3c0-0.6,0-1,0-1.3V210c0-0.7,0-1.9-0.2-3.3
				c-0.1-1.5-0.1-2.6-0.1-3.3c0-0.1,0-0.3,0-0.5c0-0.3,0-0.4,0-0.6V202c0-0.4-0.1-0.8-0.3-1.3c-0.3-0.7-0.4-1.1-0.4-1.3
				c-0.2-0.1-0.4-0.2-0.8-0.3c-0.4-0.1-0.6-0.2-0.8-0.4v-0.1c0-0.2,0.1-0.3,0.2-0.4c1.1,0,2,0,2.5,0c0.9,0,2.2,0,4-0.1
				c1.8,0,3.1-0.1,4-0.1c1,0,1.8,0,2.3,0l0.8,0.1c0.3,0.5,0.6,1.1,0.8,1.7c0.3,0.7,0.5,1.2,0.6,1.7c0,0-0.1,0.1-0.1,0.2v0.1
				c0,0.1,0,0.2-0.1,0.2c-0.2,0-0.3-0.1-0.4-0.3c-0.1-0.2-0.2-0.3-0.3-0.4c-0.5-0.5-1-1-1.6-1.5c-0.7-0.6-1.3-0.9-1.8-1
				c-0.7-0.1-1.4-0.2-2-0.2c-0.4,0-1,0-1.9,0.1c-1,0.1-1.6,0.5-1.7,1.2c-0.1,0.4-0.1,0.9-0.1,1.5c0,0.3,0,0.8,0,1.4s0,1.1,0,1.4
				c0,0.4,0,0.7-0.1,0.8c0.2,0.3,0.3,0.7,0.3,1.2v0.2c0,0.6,0.1,1.1,0.4,1.4h0.1c0.1,0,0.1,0,0.2,0c0,0,0.1,0,0.2,0
				c0.1,0,0.1,0,0.2,0c0.2,0,0.4,0,0.6-0.1h0.3c1.2,0,2.1-0.4,2.7-1.3c0.1-0.5,0.3-1.2,0.6-2.2c0-0.4,0.2-0.5,0.5-0.5
				c0.2,0,0.3,0.2,0.3,0.5c0,0.4-0.1,0.9-0.2,1.6l0.1,0.1l0,0c-0.1,0.1-0.1,0.1-0.1,0.2c0,0,0,0.1,0,0.2s0,0.2,0,0.2
				c0,0.1,0,0.1-0.1,0.2c0,0.1,0,1.1,0.1,2.9c0,1.2,0.1,2.2,0.3,3c0,0.1-0.1,0.1-0.2,0.1c0,0-0.1,0-0.2,0c-0.1,0-0.2,0-0.2,0h-0.1
				c-0.1-0.2-0.2-0.6-0.4-1c-0.1-0.6-0.3-1.2-0.7-1.7c-0.4-0.5-0.9-0.9-1.5-1c-0.4-0.1-0.8-0.2-1.3-0.2c-0.4,0-0.9,0-1.4,0.1
				c-0.1,0.2-0.2,0.5-0.2,0.8c-0.1,0.5-0.1,0.8-0.1,0.9c0.1,0.5,0.1,1.2,0.1,2.2v0.2c0,1.7,0.2,2.9,0.7,3.5c0.2,0.2,0.4,0.3,0.7,0.4
				s0.6,0.2,0.7,0.3c0.3,0,0.8,0.1,1.4,0.1c1.7,0,3.1-0.3,4.4-0.8c0.5-0.5,1.1-1,1.7-1.5c0.7-0.6,1.1-1.2,1.4-1.7c0,0,0.1,0,0.2-0.1
				c0.1,0,0.1-0.1,0.2-0.1h0.1c0.2,0.1,0.2,0.3,0.2,0.5C594.2,213.4,594.1,213.6,594.1,213.8z"/>
			<path d="M625.1,201.6c-0.1,0.1-0.2,0.2-0.3,0.2s-0.2-0.1-0.4-0.2c-1-1.2-2.2-2.2-3.5-2.8h-1.2c0,0-0.4,0-1.2,0
				c-0.1,0-0.4,0-0.7,0h-0.5c-0.8,0-1.3,0.2-1.5,0.6c-0.2,1-0.3,2.2-0.3,3.7c0,0.5,0,1.3,0.1,2.3c0,1,0.1,1.7,0.1,2.2v0.4
				c0,0.5,0,1.3,0.1,2.4c0,1.1,0.1,1.9,0.1,2.5v0.4c0.2,1.2,0.3,1.9,0.4,2.2c0.3,0.8,0.8,1.3,1.5,1.5c0.6,0,1,0.2,1.1,0.5l0,0
				l-0.1,0.2h-0.8c-0.5,0-1.4,0-2.5,0c-1.1,0-1.9,0-2.5,0c-0.8,0-1.6,0-2.4,0.1c-0.1,0.1-0.2,0.1-0.4,0.1c-0.3,0-0.5-0.1-0.7-0.2
				v-0.1c0-0.2,0.1-0.4,0.4-0.5c0.4-0.1,0.6-0.1,0.7-0.2c1.1-0.3,1.7-1,1.9-2.1c0.1-3.4,0.1-5.4,0.1-6c0-0.2-0.1-0.4-0.1-0.8v-0.5
				c0-0.4,0-0.8-0.2-1c0-0.5,0-1.4,0.1-2.6c0-1.2,0.1-2.1,0.1-2.7c0-0.9,0-1.5-0.1-1.9l-0.4-0.3c-0.3,0-0.8,0-1.4-0.1
				c-0.5,0-0.9,0-1.2,0c-0.5,0-1.1,0-1.8,0.1c-0.1,0.1-0.5,0.2-1.2,0.5c-0.5,0.2-0.8,0.5-0.9,0.8c-0.5,0.5-1.2,1.2-2.1,2.1
				c-0.2-0.1-0.3-0.2-0.3-0.4v-0.3c0.3-0.8,1-2.5,2.2-5.2c0.2,0.1,0.5,0.3,0.8,0.6c0.3,0.3,0.6,0.5,0.8,0.5c1.8,0.1,3.9,0.2,6.3,0.2
				c0.7,0,1.8,0,3.4,0c1.6,0,2.9,0,3.8,0c0.3,0,0.6-0.2,0.9-0.6c0.4-0.4,0.6-0.6,0.8-0.6s0.3,0.1,0.5,0.3
				C623.3,198,624,199.5,625.1,201.6z"/>
			<path d="M656.3,198.4c-1.1,0.4-1.8,0.9-2.2,1.5c-0.4,0.8-0.6,1.8-0.7,3c0,1.1-0.1,2.1-0.1,3.2c0.1,0,0.1,0.2,0.1,0.4
				c0,0,0,0.1,0,0.2c0,0.1,0,0.1,0,0.1v0.1c0,2.7-0.2,4.8-0.7,6.2c-0.3,0.9-0.8,1.8-1.4,2.6c-0.7,0.9-1.5,1.5-2.4,1.8
				c-0.8,0.4-1.9,0.6-3.1,0.6c-0.7,0-1.6-0.1-2.6-0.4c-1.1-0.3-2.1-0.9-2.9-1.8c-0.9-0.9-1.4-1.9-1.7-3c-0.1-1.1-0.1-2.3-0.1-3.8
				v-2.4c0-1.2,0-2.2-0.1-2.8c-0.1-1-0.1-2-0.2-2.9c-0.1-1.1-0.7-1.8-1.6-2.1c0,0-0.3-0.1-0.7-0.2c-0.3-0.1-0.4-0.2-0.4-0.4
				c0-0.1,0-0.2,0-0.1c0.7-0.1,1.6-0.2,2.6-0.2c0.4,0,1.1,0,1.9,0s1.5,0,1.9,0c0.9,0,1.7,0,2.1,0c0.1,0.1,0.2,0.2,0.2,0.4
				c-0.5,0.1-1.2,0.4-1.9,0.7c-0.4,0.3-0.7,0.7-0.9,1.2c-0.1,0.4-0.2,0.8-0.2,1.5c-0.1,0.9-0.1,1.4-0.2,1.6v0.6c0,0.3,0,0.8,0,1.5
				c0,0.6,0,1.1,0,1.5v0.6c0.1,1.1,0.2,2.3,0.2,3.4c0.1,1.3,0.3,2.4,0.7,3.2c1.2,1.8,2.9,2.8,5.1,2.8h0.4c0.5,0,1-0.2,1.6-0.6
				c0.5-0.4,0.9-0.8,1.4-1.1c0.6-0.6,1-1.5,1.4-2.7c0.1-0.2,0.2-0.9,0.4-2.1c0.1-0.8,0.2-1.7,0.2-2.8c0-0.4,0-0.9,0-1.7
				c0-0.7,0-1.3,0-1.6v-0.7c-0.1-1-0.2-2-0.3-3c-0.2-1.1-0.8-1.8-1.8-2.1c-0.1-0.1-0.3-0.1-0.7-0.1c-0.3,0-0.5-0.1-0.6-0.3v-0.1
				c0-0.2,0.1-0.3,0.2-0.3c-0.1,0,0.6,0,2.2,0c1.6,0,3.2,0,4.9,0c0,0.1,0.1,0.2,0.1,0.3C656.4,198.2,656.4,198.3,656.3,198.4z"/>
			<path d="M680.7,210.9v0.2c0,1-0.2,2-0.5,3.1c-0.6,1.1-1.4,2-2.4,2.7s-2.2,1.1-3.4,1.1c-0.3,0-0.7,0-1-0.1c-0.1,0-0.2,0.1-0.3,0.1
				s-0.4,0-0.7-0.1s-0.5-0.1-0.7-0.1c-0.3,0-1-0.3-2.1-0.8c-0.1,0-0.3,0.1-0.5,0.3c-0.2,0.2-0.4,0.3-0.5,0.3c-0.2,0-0.3-0.1-0.4-0.2
				c-0.1-2.3-0.2-3.8-0.2-4.7v-0.2c0-0.2,0-0.3,0.1-0.4h0.1c0.2,0,0.3,0.1,0.4,0.2c0.1,0.9,0.5,1.8,1,2.6c0.6,0.8,1.2,1.4,2,1.8
				c0.6,0.3,1.3,0.5,2.1,0.5c0.5,0,1.1-0.1,1.7-0.2c1.5-0.7,2.3-1.5,2.5-2.5c0.1-0.3,0.1-0.7,0.1-1c0-1-0.3-1.9-0.9-2.7
				c-0.6-0.7-1.7-1.3-3.4-1.7c-1.6-0.4-2.7-0.9-3.3-1.6c-1.5-1-2.2-2.5-2.2-4.4v-0.4c0-0.9,0.3-1.8,0.9-2.7c0.6-0.9,1.4-1.5,2.3-1.8
				c1-0.4,1.9-0.6,2.8-0.6c1.4,0,2.6,0.4,3.7,1.1c0.1,0,0.2-0.1,0.4-0.2c0.2-0.1,0.3-0.2,0.3-0.2c0.1,0,0.2,0,0.2,0.1
				c0.2,0.9,0.3,2.2,0.5,3.9c0,0.1-0.2,0.1-0.4,0.1c-0.1-0.1-0.2-0.2-0.2-0.4c0-0.2-0.1-0.3-0.1-0.4c-0.4-1-1-1.8-1.9-2.5
				s-1.9-1.1-2.8-1.1h-0.1c-1.2,0-2.3,0.7-3.1,2c-0.2,0.5-0.4,1.1-0.4,1.6v0.2c0,0.7,0.3,1.5,1,2.1c0.5,0.6,1.1,1,1.9,1.3
				c0.3,0.1,1.1,0.4,2.5,0.8c1.1,0.3,2,0.7,2.6,1.1C679.6,208.3,680.4,209.4,680.7,210.9z"/>
			<path d="M696.4,216.3c0,0.3-0.2,0.6-0.5,1.1c-0.3,0.3-0.7,0.4-1.1,0.4c-0.2,0-0.5,0-0.8-0.1c-0.2,0-0.5-0.3-0.9-0.9
				c-0.1-0.2-0.1-0.6-0.1-1.1v-0.3c0.3-0.7,0.8-1,1.5-1.1c0.1,0,0.2,0,0.3,0c0.4,0,0.7,0.1,1,0.4c0.3,0.3,0.5,0.6,0.6,1.1
				c0,0,0,0,0,0.1v0.1v0.1V216.3z"/>
			<path d="M727.8,212.9l-0.2,2.6c0,0.1-0.1,0.2-0.2,0.2c-0.1,0-0.2,0-0.4-0.1s-0.3-0.1-0.4-0.1c-0.1,0-0.1,0-0.2,0.1
				c-1.8,1.7-3.7,2.6-5.8,2.6h-1.1c-2.6,0-4.6-0.7-6.2-2.1c-0.2-0.1-0.5-0.3-0.8-0.6c-0.2-0.2-0.4-0.5-0.7-0.7
				c-1.7-1.8-2.6-4-2.6-6.5c0-0.8,0.1-1.5,0.3-2.3c0-0.1,0-0.2,0-0.3c0-0.2,0.1-0.5,0.2-0.9c0.2-0.4,0.2-0.7,0.3-0.9
				c0.8-1.8,1.8-3.1,3.2-3.9c0.3-0.4,1.1-0.8,2.3-1.4c1.2-0.5,2.7-0.8,4.3-0.8c1.2,0,2.5,0.2,3.8,0.5c0,0,0.1,0,0.2,0
				c0,0,0.3,0.1,0.9,0.2c0.4,0.2,0.9,0.4,1.6,0.7c0.1-0.1,0.2-0.2,0.4-0.5c0.2-0.2,0.3-0.3,0.5-0.3h0.1c0.2,1.7,0.2,3,0.2,3.9
				c0,0.1,0,0.2,0,0.4c0,0.2,0,0.3,0,0.4c-0.1,0-0.2,0.1-0.3,0.1s-0.2,0-0.3-0.1c-0.2-0.3-0.4-0.8-0.7-1.4c-1.4-2-3.4-3-6-3
				c-0.6,0-1.2,0.1-1.8,0.2c-1.8,0.4-3.2,1.5-4.2,3.4c-0.9,1.6-1.3,3.4-1.3,5.4v0.2c0,0.2,0,0.4,0,0.7c0,1.7,0.5,3.6,1.7,5.7
				c0.5,1,1.3,1.8,2.4,2.4c1.1,0.6,2.2,0.9,3.3,0.9c2.2,0,4.3-1.4,6.1-4.2l0.5-1c0.2-0.4,0.5-0.6,0.8-0.6l0,0
				C727.6,211.9,727.6,212.3,727.8,212.9z"/>
			<path d="M760.4,207.9c0,2.8-1,5.1-2.9,7.3c-2,2-4.3,3-7,3c-1.5,0-2.9-0.3-4.1-0.9c-1.3-0.4-2.6-1.5-4.1-3.3
				c-1.1-1.7-1.6-3.6-1.6-5.8v-0.3c0-0.1,0-0.3,0-0.5c0-0.2,0-0.3,0-0.4c0.1-1.6,0.9-3.6,2.5-6c1.8-2.2,4.4-3.3,7.8-3.3
				c0.7,0,1.4,0.1,2.1,0.2c1.4,0.2,2.7,0.9,3.8,1.9c1.1,1,2,2.1,2.6,3.5c0,0,0.2,0.8,0.6,2.3c0.2,0.9,0.4,1.7,0.4,2.4l0,0H760.4z
				 M756.7,206.2c-0.5-3.4-1.8-5.7-4-7.1l-0.1,0.1c-0.8-0.5-1.8-0.7-2.8-0.7c-0.4,0-0.7,0-1.1,0.1c-1.2,0.2-2.2,0.9-3,2.1
				c-0.5,0.7-1,1.9-1.6,3.5c-0.2,0.6-0.3,1.4-0.3,2.4v1.3c0,0.6,0,1.1,0,1.4c0.2,0.8,0.5,2,1,3.5c1.4,3,3.1,4.5,5.3,4.5h0.5
				c1,0,1.9-0.4,2.8-1.1c0.8-0.6,1.4-1.4,1.9-2.4c1-1.8,1.4-3.7,1.4-5.9C756.8,207.3,756.8,206.7,756.7,206.2z"/>
			<path d="M797.3,217.7l-0.2,0.2c-1.5-0.1-3-0.2-4.5-0.2c0,0-1.4,0-4.2,0.1c0-0.1-0.1-0.2-0.1-0.3c0-0.1,0-0.2,0.1-0.3
				c0.4-0.2,0.8-0.3,1.3-0.5c0.6-0.2,1-0.5,1.2-0.8c0,0,0.1-0.4,0.3-1.2c0.1-1,0.2-4,0.5-9.1l-0.2-0.1c0.1-2.3,0.2-3.4,0.2-3.3
				c0-1.2-0.1-2.1-0.3-2.6c-2,4.5-3.2,7.4-3.6,8.5c-1.4,3.4-2.6,6.4-3.5,9c-0.1,0-0.2,0.1-0.3,0.1c-0.4-0.9-2-4.7-4.7-11.6h-0.1
				l-0.9-2.6c-0.4-1-0.8-1.9-1.2-2.5l-0.2-0.1c-0.3,1.6-0.5,3-0.5,4.3c0,0.5,0,1.1,0.1,1.6c-0.1,2.9-0.2,4.8-0.2,5.6
				c0,1,0,2.1,0.1,3.4c0.3,0.7,0.7,1.3,1.1,1.7c0.1,0.1,0.4,0.2,0.9,0.2c0.4,0,0.6,0.1,0.6,0.4c0,0,0,0,0,0.1v0.1
				c0,0,0.1,0.1,0.1,0.2l-0.2,0.2c-3.2-0.1-4.9-0.2-5.2-0.2h-1c0-0.2-0.1-0.3-0.1-0.4c0-0.1,0-0.2,0.1-0.4c1.2-0.2,1.9-0.7,2.3-1.5
				c0.1-0.5,0.2-1.3,0.4-2.3c0.2-3.2,0.3-6.2,0.3-9v-3.4c-0.2-0.9-0.3-1.4-0.4-1.5c-0.2-0.5-0.6-0.8-1.1-0.9h-0.1
				c-0.1,0-0.3-0.1-0.5-0.2s-0.4-0.2-0.5-0.2h-0.1c0,0-0.1-0.1-0.1-0.2c-0.1-0.1-0.1-0.2-0.1-0.3c0-0.1,0-0.1,0.1-0.2l0.3-0.2
				c0.3,0.1,0.9,0.2,1.5,0.2c0.7,0,1.2,0.1,1.5,0.2c0.1,0,0.2,0,0.3,0s0.3,0,0.3,0s0.3,0,0.5,0s0.4,0,0.5,0c0.7,0,1.3-0.1,1.8-0.2
				c1,2.8,2.5,6.8,4.6,12.2l0.8,1.8h0.1l0.3-0.2c0.9-1.9,2.3-5.1,4.2-9.8c0.1-0.5,0.3-1.1,0.7-1.9c0.3-0.8,0.6-1.4,0.7-1.8
				c0.1-0.2,0.3-0.3,0.5-0.4c0.5,0.1,1,0.1,1.6,0.1c0.5,0,1.2,0,2.1-0.1c1-0.1,1.7-0.1,2.1-0.1c0.2,0.2,0.3,0.4,0.3,0.5
				s0,0.1-0.1,0.2c-0.3,0.1-0.7,0.2-1,0.3c-0.4,0.1-0.7,0.3-0.9,0.5c-0.1,0.2-0.3,0.5-0.6,1c-0.2,0.6-0.4,1.5-0.4,2.6
				c0,0.2,0,0.5,0,0.8c0,0.4,0,0.6,0,0.8v10.9c0.2,0.5,0.4,0.8,0.5,1.1c0.2,0.4,0.6,0.6,1.1,0.8c0.4,0.2,0.9,0.3,1.3,0.5
				c0,0,0.1,0.1,0.1,0.2v0.2H797.3z"/>
		</g>
	</g>
	<g>
		<path d="M196.8,48.7h-19c-0.4,0-0.5-0.1-0.5-0.1c0.1,0,0.2-0.5,1.2-0.6l3.1-0.5c0.8-0.1,1.6-0.5,2.3-1.2c0.8-0.7,1.3-1.6,1.7-2.7
			l6.8-18.3l6.7-18.6c0.2-0.5,0.2-1,0-1.4s-0.6-0.7-1-0.7l-8,0.4c-1,0.1-1.9,0.4-2.7,0.9c-0.9,0.6-1.5,1.2-1.9,2l-2.5,4.8
			c-0.5,0.8-0.8,1-1,1c0-0.1,0.1-0.3,0.2-0.6l4-11c0.1-0.2,0.2-0.4,0.4-0.5c0.2-0.1,0.4-0.2,0.6-0.2h35.3c0.2,0,0.3,0,0.3,0.1
			l-4.1,11.2c-0.3,0.7-0.6,1-0.7,1c0,0-0.1-0.2,0-0.7l1-4.8c0.2-0.9,0-1.6-0.5-2.3c-0.5-0.6-1.3-1-2.3-1l-7.7-0.4
			c-0.4,0-0.8,0.2-1.1,0.5c-0.4,0.3-0.6,0.7-0.8,1.2l-6.9,18.6L193,43.1c-0.4,1.1-0.5,2-0.2,2.8c0.3,0.8,0.9,1.3,1.7,1.5l2.8,0.5
			c0.2,0,0.3,0.1,0.4,0.2c-0.1,0.2-0.2,0.3-0.3,0.4C197.3,48.7,197.1,48.7,196.8,48.7L196.8,48.7z"/>
		<path d="M261.2,49.5c-3.7,0-6-1.2-7.2-3.8c-1.2-2.6-1-6.4,0.8-11.4c0.7-2,1.8-4,3.1-5.9s2.8-3.6,4.4-5c1.6-1.4,3.3-2.6,5.1-3.4
			c1.8-0.9,3.6-1.3,5.4-1.3c2.7,0,4.6,0.7,5.8,2.1c1.1,1.4,1.2,3.5,0.1,6.4c-0.5,1.3-1.3,2.7-2.5,4.1c-1.2,1.4-2.6,2.7-4.3,3.9
			c-1.7,1.2-3.6,2.3-5.8,3.2c-2.1,0.9-4.4,1.6-6.8,2.1H259l-0.1,0.3c-0.4,1.8-0.3,3.3,0.2,4.6c0.5,1.4,1.6,2.1,3.1,2.1
			c2,0,3.8-0.4,5.5-1.3c1.6-0.8,3.1-1.9,4.4-3.2l0.7-0.6l0.7,0.7c0,0-0.1,0.1-0.2,0.2c-1.6,1.8-3.4,3.2-5.4,4.3
			C265.9,48.9,263.6,49.5,261.2,49.5L261.2,49.5z M271.6,20.3c-2.1,0-4,1.3-5.8,3.8c-1.8,2.4-3.4,5.7-4.9,9.8
			c-0.2,0.7-0.5,1.3-0.6,2c-0.2,0.7-0.4,1.3-0.5,1.9l-0.2,0.8l0.8-0.2c1.9-0.4,3.5-1,5-1.7c1.4-0.7,2.7-1.7,3.8-2.7
			c1.1-1,2-2.1,2.8-3.3c0.8-1.2,1.4-2.4,1.8-3.6c0.6-1.7,0.8-3.2,0.6-4.5C274.1,21.2,273.1,20.3,271.6,20.3L271.6,20.3z"/>
		<path d="M227,33.3c-0.9,1.3-1.7,3-2.3,4.4c-0.6,1-1.3,2.1-2,3.3s-1.4,2.7-2.3,4.4c-0.9,1.7-1.4,2.8-1.8,3.4
			c-0.2,0.3-0.7,0.5-1.3,0.6s-1,0.2-1.3,0.3c-0.2-0.1-0.5-0.1-0.8-0.2c-0.4-0.1-0.7-0.2-0.9-0.4c0.2-0.7,0.7-1.8,1.3-3.3
			c0.6-1.5,1-2.6,1.1-3.1c0.7-1,1.5-2.7,2.5-5.2c0.6-1.5,1.7-4.6,3.5-9.5c1.8-4.8,3.2-8.5,4.1-11c0.9-2.5,1.8-4.8,2.5-6.9
			c0.8-2.1,1.7-4.7,2.7-8c-0.3-0.4-0.8-0.6-1.5-0.6l-3.2,0.1c0-0.1-0.1-0.2-0.1-0.3c-0.1-0.1-0.1-0.2-0.1-0.2V1.1l0.6-0.6
			c0.8,0,2-0.1,3.5-0.2c1.5-0.1,2.8-0.2,3.8-0.3c1.2,0,2.1,0,2.7,0.1c-0.3,1.1-0.7,2.1-1,3.1c-0.4,1-0.8,2.1-1.2,3.1
			c-0.4,1.1-0.8,2.1-1.1,3.1s-0.5,2-0.7,3.1c-1,2.6-1.9,4.7-2.6,6.6c-0.7,1.8-1.3,3.4-2.3,5.9c0,0.1-0.2,0.4,0,0.8l0.1,0.3l0.6,0.1
			c0.4,0,0.7-0.2,0.9-0.4c0.9-1,1.8-2,2.7-2.9s1.9-1.7,2.8-2.4c0.9-0.7,1.9-1.2,2.7-1.6c0.9-0.4,1.7-0.6,2.5-0.6
			c2.3,0,3.7,0.8,4.4,2.4c0.7,1.7,0.5,4.2-0.7,7.6c-0.3,0.9-0.8,2.1-1.4,3.7c-0.6,1.5-1.3,3.1-1.9,4.8l-1.9,4.7
			c-0.6,1.5-1.1,2.8-1.5,3.7c-0.2,0.7-0.2,1.3,0.1,1.6c0.4,0.4,0.7,0.5,1,0.5c0.5,0,1.2-0.4,2.2-1.3c0.9-0.8,1.7-1.8,2.5-3
			c0.1-0.2,0.3-0.4,0.5-0.5c0.1-0.1,0.2-0.1,0.4-0.1l0.3,0.2c0,0.1,0,0.3-0.2,0.6c-1.2,1.8-2.5,3.3-3.9,4.4
			c-1.3,1.1-2.9,1.6-4.9,1.6c-1.8,0-3-0.4-3.5-1.3c-0.5-0.9-0.6-1.9-0.1-3c0.3-0.9,0.8-2.1,1.4-3.6l1.3-3.2l0.6-1.4
			c0.5-1.3,1-2.5,1.5-3.7l0.4-1c0.6-1.5,1.1-2.7,1.4-3.7c1-2.7,1.4-4.6,1.4-5.6c0-0.7-0.2-1.2-0.6-1.6c-0.2-0.2-0.5-0.4-1.1-0.4
			c-1,0-2.2,0.6-3.6,2c-1.4,1.2-2.8,2.8-4.3,4.7s-2.9,3.9-4.2,6"/>
	</g>
</g>
</svg>
